<svg width="135" height="46" viewBox="0 0 135 46" fill="none" xmlns="http://www.w3.org/2000/svg">
<line x1="9" y1="1.5" x2="126" y2="1.49999" stroke="#FEFF00" stroke-width="3"/>
<line x1="9" y1="44.5" x2="126" y2="44.5" stroke="#FEFF00" stroke-width="3"/>
<line x1="1.5" y1="9" x2="1.5" y2="37" stroke="#FEFF00" stroke-width="3"/>
<line x1="133.5" y1="9" x2="133.5" y2="37" stroke="#FEFF00" stroke-width="3"/>
<rect x="126" y="3" width="3" height="3" fill="#FEFF00"/>
<rect x="129" y="6" width="3" height="3" fill="#FEFF00"/>
<rect width="3" height="3" transform="matrix(1 0 0 -1 126 43)" fill="#FEFF00"/>
<rect width="3" height="3" transform="matrix(1 0 0 -1 129 40)" fill="#FEFF00"/>
<rect width="3" height="3" transform="matrix(-1 0 0 1 9 3)" fill="#FEFF00"/>
<rect width="3" height="3" transform="matrix(-1 0 0 1 6 6)" fill="#FEFF00"/>
<rect x="9" y="43" width="3" height="3" transform="rotate(180 9 43)" fill="#FEFF00"/>
<rect x="6" y="40" width="3" height="3" transform="rotate(180 6 40)" fill="#FEFF00"/>
</svg>
