<svg width="261" height="566" viewBox="0 0 261 566" fill="none" xmlns="http://www.w3.org/2000/svg">
<path d="M52.4248 111.202V102.818H54.6038V117H52.4248V114.599H52.2771C51.9447 115.32 51.4276 115.932 50.7259 116.437C50.0242 116.935 49.1379 117.185 48.0668 117.185C47.1805 117.185 46.3926 116.991 45.7032 116.603C45.0138 116.209 44.4721 115.618 44.0782 114.83C43.6843 114.036 43.4873 113.036 43.4873 111.83V102.818H45.6663V111.682C45.6663 112.716 45.9556 113.541 46.5342 114.156C47.1189 114.772 47.8637 115.08 48.7685 115.08C49.3102 115.08 49.8611 114.941 50.4212 114.664C50.9875 114.387 51.4615 113.962 51.8431 113.39C52.2309 112.817 52.4248 112.088 52.4248 111.202ZM57.2947 122.318V102.818H59.3998V105.071H59.6583C59.8184 104.825 60.04 104.511 60.3231 104.129C60.6124 103.741 61.0248 103.397 61.5603 103.095C62.102 102.787 62.8345 102.634 63.7578 102.634C64.9519 102.634 66.0045 102.932 66.9154 103.529C67.8264 104.126 68.5374 104.973 69.0483 106.068C69.5591 107.164 69.8146 108.456 69.8146 109.946C69.8146 111.448 69.5591 112.75 69.0483 113.852C68.5374 114.947 67.8295 115.797 66.9247 116.4C66.0198 116.997 64.9765 117.295 63.7947 117.295C62.8837 117.295 62.1543 117.145 61.6065 116.843C61.0587 116.535 60.637 116.187 60.3416 115.8C60.0461 115.406 59.8184 115.08 59.6583 114.821H59.4737V122.318H57.2947ZM59.4368 109.909C59.4368 110.98 59.5937 111.925 59.9076 112.744C60.2216 113.556 60.6801 114.193 61.2833 114.655C61.8866 115.11 62.6252 115.338 63.4993 115.338C64.4102 115.338 65.1704 115.098 65.7798 114.618C66.3953 114.132 66.857 113.479 67.1647 112.661C67.4787 111.836 67.6356 110.919 67.6356 109.909C67.6356 108.912 67.4817 108.013 67.174 107.213C66.8724 106.407 66.4138 105.77 65.7983 105.302C65.1889 104.828 64.4225 104.591 63.4993 104.591C62.6129 104.591 61.8681 104.816 61.2649 105.265C60.6617 105.708 60.2062 106.33 59.8984 107.13C59.5906 107.924 59.4368 108.85 59.4368 109.909ZM74.0174 98.0909V117H71.8385V98.0909H74.0174ZM82.4697 117.295C81.1894 117.295 80.0661 116.991 79.0997 116.381C78.1395 115.772 77.3885 114.92 76.8469 113.824C76.3114 112.728 76.0436 111.448 76.0436 109.983C76.0436 108.506 76.3114 107.216 76.8469 106.114C77.3885 105.013 78.1395 104.157 79.0997 103.548C80.0661 102.938 81.1894 102.634 82.4697 102.634C83.75 102.634 84.8703 102.938 85.8305 103.548C86.7969 104.157 87.5479 105.013 88.0834 106.114C88.625 107.216 88.8959 108.506 88.8959 109.983C88.8959 111.448 88.625 112.728 88.0834 113.824C87.5479 114.92 86.7969 115.772 85.8305 116.381C84.8703 116.991 83.75 117.295 82.4697 117.295ZM82.4697 115.338C83.4423 115.338 84.2425 115.089 84.8703 114.59C85.4981 114.092 85.9629 113.436 86.2645 112.624C86.5661 111.811 86.7169 110.931 86.7169 109.983C86.7169 109.035 86.5661 108.152 86.2645 107.333C85.9629 106.514 85.4981 105.853 84.8703 105.348C84.2425 104.843 83.4423 104.591 82.4697 104.591C81.4972 104.591 80.697 104.843 80.0692 105.348C79.4413 105.853 78.9766 106.514 78.675 107.333C78.3734 108.152 78.2226 109.035 78.2226 109.983C78.2226 110.931 78.3734 111.811 78.675 112.624C78.9766 113.436 79.4413 114.092 80.0692 114.59C80.697 115.089 81.4972 115.338 82.4697 115.338ZM95.0953 117.332C94.1967 117.332 93.3811 117.163 92.6486 116.825C91.9161 116.48 91.3345 115.984 90.9036 115.338C90.4727 114.686 90.2573 113.898 90.2573 112.974C90.2573 112.162 90.4173 111.503 90.7374 110.999C91.0575 110.488 91.4853 110.088 92.0208 109.798C92.5563 109.509 93.1472 109.294 93.7935 109.152C94.446 109.004 95.1015 108.887 95.7601 108.801C96.6219 108.69 97.3205 108.607 97.856 108.552C98.3977 108.49 98.7916 108.389 99.0378 108.247C99.2902 108.106 99.4164 107.859 99.4164 107.509V107.435C99.4164 106.524 99.1671 105.816 98.6685 105.311C98.1761 104.806 97.4282 104.554 96.4249 104.554C95.3846 104.554 94.5691 104.782 93.9782 105.237C93.3872 105.693 92.9718 106.179 92.7317 106.696L90.6635 105.957C91.0328 105.096 91.5253 104.425 92.1408 103.945C92.7625 103.458 93.4396 103.12 94.172 102.929C94.9107 102.732 95.637 102.634 96.351 102.634C96.8065 102.634 97.3297 102.689 97.9206 102.8C98.5177 102.904 99.0932 103.123 99.6472 103.455C100.207 103.788 100.672 104.289 101.041 104.96C101.411 105.631 101.595 106.53 101.595 107.656V117H99.4164V115.08H99.3056C99.1578 115.387 98.9116 115.717 98.5669 116.067C98.2222 116.418 97.7637 116.717 97.1912 116.963C96.6188 117.209 95.9202 117.332 95.0953 117.332ZM95.4277 115.375C96.2895 115.375 97.0158 115.206 97.6067 114.867C98.2038 114.529 98.6531 114.092 98.9547 113.556C99.2625 113.021 99.4164 112.457 99.4164 111.866V109.872C99.324 109.983 99.1209 110.085 98.807 110.177C98.4992 110.263 98.1422 110.34 97.736 110.408C97.3359 110.469 96.945 110.525 96.5634 110.574C96.1879 110.617 95.8832 110.654 95.6493 110.685C95.083 110.759 94.5537 110.879 94.0613 111.045C93.575 111.205 93.181 111.448 92.8794 111.774C92.584 112.094 92.4363 112.531 92.4363 113.085C92.4363 113.842 92.7163 114.415 93.2765 114.803C93.8427 115.184 94.5598 115.375 95.4277 115.375ZM109.628 117.295C108.446 117.295 107.402 116.997 106.498 116.4C105.593 115.797 104.885 114.947 104.374 113.852C103.863 112.75 103.608 111.448 103.608 109.946C103.608 108.456 103.863 107.164 104.374 106.068C104.885 104.973 105.596 104.126 106.507 103.529C107.418 102.932 108.47 102.634 109.664 102.634C110.588 102.634 111.317 102.787 111.853 103.095C112.394 103.397 112.807 103.741 113.09 104.129C113.379 104.511 113.604 104.825 113.764 105.071H113.949V98.0909H116.128V117H114.022V114.821H113.764C113.604 115.08 113.376 115.406 113.081 115.8C112.785 116.187 112.364 116.535 111.816 116.843C111.268 117.145 110.539 117.295 109.628 117.295ZM109.923 115.338C110.797 115.338 111.536 115.11 112.139 114.655C112.742 114.193 113.201 113.556 113.515 112.744C113.829 111.925 113.986 110.98 113.986 109.909C113.986 108.85 113.832 107.924 113.524 107.13C113.216 106.33 112.761 105.708 112.157 105.265C111.554 104.816 110.809 104.591 109.923 104.591C109 104.591 108.23 104.828 107.615 105.302C107.005 105.77 106.547 106.407 106.239 107.213C105.937 108.013 105.787 108.912 105.787 109.909C105.787 110.919 105.941 111.836 106.248 112.661C106.562 113.479 107.024 114.132 107.633 114.618C108.249 115.098 109.012 115.338 109.923 115.338ZM131.449 102.818V104.665H123.804V102.818H131.449ZM126.094 117V100.861C126.094 100.048 126.284 99.3712 126.666 98.8295C127.048 98.2879 127.543 97.8816 128.153 97.6108C128.762 97.34 129.405 97.2045 130.082 97.2045C130.618 97.2045 131.055 97.2476 131.393 97.3338C131.732 97.42 131.984 97.5 132.15 97.5739L131.523 99.4574C131.412 99.4205 131.258 99.3743 131.061 99.3189C130.87 99.2635 130.618 99.2358 130.304 99.2358C129.584 99.2358 129.064 99.4174 128.743 99.7805C128.43 100.144 128.273 100.676 128.273 101.378V117H126.094ZM133.203 117V102.818H135.381V117H133.203ZM134.31 100.455C133.886 100.455 133.52 100.31 133.212 100.021C132.91 99.7313 132.759 99.3835 132.759 98.9773C132.759 98.571 132.91 98.2232 133.212 97.9339C133.52 97.6446 133.886 97.5 134.31 97.5C134.735 97.5 135.098 97.6446 135.4 97.9339C135.708 98.2232 135.862 98.571 135.862 98.9773C135.862 99.3835 135.708 99.7313 135.4 100.021C135.098 100.31 134.735 100.455 134.31 100.455ZM138.072 117V102.818H140.178V104.96H140.325C140.584 104.259 141.052 103.689 141.729 103.252C142.406 102.815 143.169 102.597 144.018 102.597C144.179 102.597 144.379 102.6 144.619 102.606C144.859 102.612 145.04 102.621 145.163 102.634V104.849C145.089 104.831 144.92 104.803 144.656 104.766C144.397 104.723 144.123 104.702 143.834 104.702C143.144 104.702 142.529 104.846 141.987 105.136C141.452 105.419 141.027 105.813 140.713 106.317C140.405 106.816 140.251 107.385 140.251 108.026V117H138.072ZM146.446 117V102.818H148.551V105.034H148.736C149.031 104.277 149.509 103.689 150.167 103.271C150.826 102.846 151.617 102.634 152.54 102.634C153.476 102.634 154.254 102.846 154.876 103.271C155.504 103.689 155.993 104.277 156.344 105.034H156.492C156.855 104.302 157.4 103.72 158.126 103.289C158.852 102.852 159.723 102.634 160.739 102.634C162.007 102.634 163.044 103.031 163.85 103.825C164.657 104.612 165.06 105.84 165.06 107.509V117H162.881V107.509C162.881 106.462 162.595 105.714 162.022 105.265C161.45 104.816 160.776 104.591 160 104.591C159.003 104.591 158.231 104.893 157.683 105.496C157.135 106.093 156.861 106.85 156.861 107.767V117H154.645V107.287C154.645 106.481 154.384 105.831 153.86 105.339C153.337 104.84 152.663 104.591 151.838 104.591C151.272 104.591 150.743 104.742 150.25 105.043C149.764 105.345 149.37 105.763 149.068 106.299C148.773 106.828 148.625 107.441 148.625 108.136V117H146.446ZM170.957 117L166.636 102.818H168.926L171.991 113.676H172.139L175.167 102.818H177.494L180.485 113.639H180.633L183.698 102.818H185.988L181.667 117H179.525L176.423 106.105H176.201L173.099 117H170.957ZM191.742 117.332C190.844 117.332 190.028 117.163 189.295 116.825C188.563 116.48 187.981 115.984 187.55 115.338C187.12 114.686 186.904 113.898 186.904 112.974C186.904 112.162 187.064 111.503 187.384 110.999C187.704 110.488 188.132 110.088 188.668 109.798C189.203 109.509 189.794 109.294 190.44 109.152C191.093 109.004 191.748 108.887 192.407 108.801C193.269 108.69 193.967 108.607 194.503 108.552C195.045 108.49 195.438 108.389 195.685 108.247C195.937 108.106 196.063 107.859 196.063 107.509V107.435C196.063 106.524 195.814 105.816 195.315 105.311C194.823 104.806 194.075 104.554 193.072 104.554C192.032 104.554 191.216 104.782 190.625 105.237C190.034 105.693 189.619 106.179 189.379 106.696L187.31 105.957C187.68 105.096 188.172 104.425 188.788 103.945C189.409 103.458 190.086 103.12 190.819 102.929C191.558 102.732 192.284 102.634 192.998 102.634C193.453 102.634 193.977 102.689 194.567 102.8C195.165 102.904 195.74 103.123 196.294 103.455C196.854 103.788 197.319 104.289 197.688 104.96C198.058 105.631 198.242 106.53 198.242 107.656V117H196.063V115.08H195.952C195.805 115.387 195.559 115.717 195.214 116.067C194.869 116.418 194.411 116.717 193.838 116.963C193.266 117.209 192.567 117.332 191.742 117.332ZM192.075 115.375C192.936 115.375 193.663 115.206 194.254 114.867C194.851 114.529 195.3 114.092 195.602 113.556C195.909 113.021 196.063 112.457 196.063 111.866V109.872C195.971 109.983 195.768 110.085 195.454 110.177C195.146 110.263 194.789 110.34 194.383 110.408C193.983 110.469 193.592 110.525 193.21 110.574C192.835 110.617 192.53 110.654 192.296 110.685C191.73 110.759 191.201 110.879 190.708 111.045C190.222 111.205 189.828 111.448 189.526 111.774C189.231 112.094 189.083 112.531 189.083 113.085C189.083 113.842 189.363 114.415 189.923 114.803C190.49 115.184 191.207 115.375 192.075 115.375ZM200.919 117V102.818H203.024V104.96H203.172C203.431 104.259 203.898 103.689 204.576 103.252C205.253 102.815 206.016 102.597 206.865 102.597C207.025 102.597 207.225 102.6 207.465 102.606C207.706 102.612 207.887 102.621 208.01 102.634V104.849C207.936 104.831 207.767 104.803 207.502 104.766C207.244 104.723 206.97 104.702 206.681 104.702C205.991 104.702 205.376 104.846 204.834 105.136C204.299 105.419 203.874 105.813 203.56 106.317C203.252 106.816 203.098 107.385 203.098 108.026V117H200.919ZM214.808 117.295C213.441 117.295 212.262 116.994 211.271 116.391C210.286 115.781 209.526 114.932 208.991 113.842C208.461 112.747 208.197 111.473 208.197 110.02C208.197 108.567 208.461 107.287 208.991 106.179C209.526 105.065 210.271 104.197 211.225 103.575C212.185 102.947 213.306 102.634 214.586 102.634C215.325 102.634 216.054 102.757 216.774 103.003C217.494 103.249 218.15 103.649 218.741 104.203C219.332 104.751 219.803 105.477 220.153 106.382C220.504 107.287 220.68 108.401 220.68 109.724V110.648H209.748V108.764H218.464C218.464 107.964 218.304 107.25 217.984 106.622C217.67 105.994 217.22 105.499 216.636 105.136C216.057 104.772 215.374 104.591 214.586 104.591C213.718 104.591 212.967 104.806 212.333 105.237C211.705 105.662 211.222 106.216 210.884 106.899C210.545 107.582 210.376 108.315 210.376 109.097V110.352C210.376 111.423 210.56 112.331 210.93 113.076C211.305 113.815 211.825 114.378 212.49 114.766C213.155 115.147 213.927 115.338 214.808 115.338C215.38 115.338 215.897 115.258 216.359 115.098C216.826 114.932 217.23 114.686 217.568 114.359C217.907 114.027 218.168 113.615 218.353 113.122L220.458 113.713C220.237 114.427 219.864 115.055 219.341 115.597C218.818 116.132 218.171 116.551 217.402 116.852C216.633 117.148 215.768 117.295 214.808 117.295Z" fill="white"/>
<path d="M88.5877 423.545C88.5877 425.54 88.2276 427.263 87.5074 428.716C86.7873 430.169 85.7993 431.289 84.5436 432.077C83.288 432.865 81.8538 433.259 80.2411 433.259C78.6284 433.259 77.1942 432.865 75.9385 432.077C74.6828 431.289 73.6949 430.169 72.9748 428.716C72.2546 427.263 71.8945 425.54 71.8945 423.545C71.8945 421.551 72.2546 419.828 72.9748 418.375C73.6949 416.922 74.6828 415.802 75.9385 415.014C77.1942 414.226 78.6284 413.832 80.2411 413.832C81.8538 413.832 83.288 414.226 84.5436 415.014C85.7993 415.802 86.7873 416.922 87.5074 418.375C88.2276 419.828 88.5877 421.551 88.5877 423.545ZM86.3718 423.545C86.3718 421.908 86.0979 420.526 85.55 419.4C85.0084 418.273 84.2728 417.421 83.3434 416.842C82.4201 416.264 81.386 415.974 80.2411 415.974C79.0962 415.974 78.059 416.264 77.1296 416.842C76.2063 417.421 75.4707 418.273 74.9229 419.4C74.3812 420.526 74.1104 421.908 74.1104 423.545C74.1104 425.183 74.3812 426.565 74.9229 427.691C75.4707 428.817 76.2063 429.67 77.1296 430.249C78.059 430.827 79.0962 431.116 80.2411 431.116C81.386 431.116 82.4201 430.827 83.3434 430.249C84.2728 429.67 85.0084 428.817 85.55 427.691C86.0979 426.565 86.3718 425.183 86.3718 423.545ZM89.3166 416.122V414.091H103.498V416.122H97.5524V433H95.2626V416.122H89.3166ZM104.299 433H101.898L108.842 414.091H111.205L118.148 433H115.748L110.097 417.082H109.95L104.299 433ZM105.185 425.614H114.861V427.645H105.185V425.614ZM131.272 433.295C129.943 433.295 128.798 432.982 127.837 432.354C126.877 431.726 126.139 430.861 125.622 429.759C125.104 428.657 124.846 427.399 124.846 425.983C124.846 424.543 125.111 423.272 125.64 422.17C126.175 421.062 126.92 420.197 127.874 419.575C128.835 418.947 129.955 418.634 131.235 418.634C132.232 418.634 133.131 418.818 133.931 419.188C134.731 419.557 135.387 420.074 135.898 420.739C136.409 421.403 136.726 422.179 136.849 423.065H134.67C134.504 422.419 134.134 421.847 133.562 421.348C132.996 420.843 132.232 420.591 131.272 420.591C130.423 420.591 129.678 420.812 129.038 421.256C128.404 421.693 127.908 422.311 127.551 423.112C127.2 423.906 127.025 424.838 127.025 425.909C127.025 427.005 127.197 427.959 127.542 428.771C127.893 429.584 128.385 430.215 129.019 430.664C129.659 431.113 130.41 431.338 131.272 431.338C131.838 431.338 132.352 431.24 132.814 431.043C133.276 430.846 133.667 430.562 133.987 430.193C134.307 429.824 134.534 429.381 134.67 428.864H136.849C136.726 429.701 136.421 430.455 135.935 431.126C135.455 431.79 134.818 432.32 134.024 432.714C133.236 433.102 132.318 433.295 131.272 433.295ZM140.913 424.469V433H138.734V414.091H140.913V421.034H141.098C141.43 420.302 141.929 419.72 142.594 419.289C143.264 418.852 144.157 418.634 145.271 418.634C146.237 418.634 147.084 418.827 147.81 419.215C148.536 419.597 149.1 420.185 149.5 420.979C149.906 421.767 150.109 422.77 150.109 423.989V433H147.93V424.136C147.93 423.01 147.638 422.139 147.053 421.523C146.474 420.902 145.671 420.591 144.643 420.591C143.929 420.591 143.289 420.742 142.723 421.043C142.163 421.345 141.719 421.785 141.393 422.364C141.073 422.942 140.913 423.644 140.913 424.469ZM158.742 433.295C157.375 433.295 156.196 432.994 155.205 432.391C154.22 431.781 153.46 430.932 152.925 429.842C152.395 428.747 152.131 427.473 152.131 426.02C152.131 424.567 152.395 423.287 152.925 422.179C153.46 421.065 154.205 420.197 155.159 419.575C156.119 418.947 157.24 418.634 158.52 418.634C159.259 418.634 159.988 418.757 160.708 419.003C161.428 419.249 162.084 419.649 162.675 420.203C163.266 420.751 163.737 421.477 164.087 422.382C164.438 423.287 164.614 424.401 164.614 425.724V426.648H153.682V424.764H162.398C162.398 423.964 162.238 423.25 161.918 422.622C161.604 421.994 161.154 421.499 160.57 421.136C159.991 420.772 159.308 420.591 158.52 420.591C157.652 420.591 156.901 420.806 156.267 421.237C155.639 421.662 155.156 422.216 154.818 422.899C154.479 423.582 154.31 424.315 154.31 425.097V426.352C154.31 427.423 154.494 428.331 154.864 429.076C155.239 429.815 155.759 430.378 156.424 430.766C157.089 431.147 157.861 431.338 158.742 431.338C159.314 431.338 159.831 431.258 160.293 431.098C160.76 430.932 161.164 430.686 161.502 430.359C161.841 430.027 162.102 429.615 162.287 429.122L164.392 429.713C164.17 430.427 163.798 431.055 163.275 431.597C162.752 432.132 162.105 432.551 161.336 432.852C160.567 433.148 159.702 433.295 158.742 433.295ZM172.39 433.295C171.06 433.295 169.915 432.982 168.955 432.354C167.995 431.726 167.256 430.861 166.739 429.759C166.222 428.657 165.964 427.399 165.964 425.983C165.964 424.543 166.228 423.272 166.758 422.17C167.293 421.062 168.038 420.197 168.992 419.575C169.952 418.947 171.072 418.634 172.353 418.634C173.35 418.634 174.249 418.818 175.049 419.188C175.849 419.557 176.504 420.074 177.015 420.739C177.526 421.403 177.843 422.179 177.966 423.065H175.787C175.621 422.419 175.252 421.847 174.679 421.348C174.113 420.843 173.35 420.591 172.39 420.591C171.54 420.591 170.795 420.812 170.155 421.256C169.521 421.693 169.026 422.311 168.669 423.112C168.318 423.906 168.143 424.838 168.143 425.909C168.143 427.005 168.315 427.959 168.66 428.771C169.01 429.584 169.503 430.215 170.137 430.664C170.777 431.113 171.528 431.338 172.39 431.338C172.956 431.338 173.47 431.24 173.932 431.043C174.393 430.846 174.784 430.562 175.104 430.193C175.424 429.824 175.652 429.381 175.787 428.864H177.966C177.843 429.701 177.539 430.455 177.052 431.126C176.572 431.79 175.935 432.32 175.141 432.714C174.353 433.102 173.436 433.295 172.39 433.295ZM181.883 427.83L181.846 425.134H182.289L188.494 418.818H191.19L184.579 425.503H184.394L181.883 427.83ZM179.852 433V414.091H182.031V433H179.852ZM188.863 433L183.323 425.983L184.874 424.469L191.633 433H188.863Z" fill="white"/>
<g clip-path="url(#clip0_309_361)">
<path d="M187.49 301.077C186.005 304.587 183.684 307.68 180.728 310.086C177.771 312.492 174.271 314.137 170.532 314.878C166.793 315.618 162.93 315.432 159.28 314.334C155.63 313.237 152.305 311.262 149.594 308.582C146.884 305.902 144.871 302.6 143.732 298.962C142.593 295.325 142.362 291.464 143.06 287.717C143.758 283.97 145.363 280.451 147.735 277.468C150.107 274.485 153.173 272.128 156.666 270.603M189.333 292C189.333 288.936 188.73 285.901 187.557 283.071C186.384 280.24 184.666 277.667 182.499 275.501C180.332 273.334 177.76 271.615 174.929 270.443C172.098 269.27 169.064 268.667 166 268.667V292H189.333Z" stroke="#F3F3F3" stroke-width="8" stroke-linecap="round" stroke-linejoin="round"/>
</g>
<path d="M87 384.375H174M130.5 340.875V384.375M43.5 188.625H217.5C229.512 188.625 239.25 198.363 239.25 210.375V319.125C239.25 331.137 229.512 340.875 217.5 340.875H43.5C31.4878 340.875 21.75 331.137 21.75 319.125V210.375C21.75 198.363 31.4878 188.625 43.5 188.625Z" stroke="#F3F3F3" stroke-width="8" stroke-linecap="round" stroke-linejoin="round"/>
<g clip-path="url(#clip1_309_361)">
<path d="M76.3335 313V296.667M76.3335 287.333V271M95.0002 313V292M95.0002 282.667V271M113.667 313V301.333M113.667 292V271M69.3335 296.667H83.3335M88.0002 282.667H102M106.667 301.333H120.667" stroke="#F3F3F3" stroke-width="8" stroke-linecap="round" stroke-linejoin="round"/>
</g>
<mask id="path-6-outside-1_309_361" maskUnits="userSpaceOnUse" x="69" y="211" width="124" height="35" fill="black">
<rect fill="white" x="69" y="211" width="124" height="35"/>
<path d="M71 228.954V213H84.6322V215.279H86.9042V219.838H84.6322V222.117H86.9042V226.675H84.6322V228.954H71ZM75.5441 219.838H82.3601V215.279H75.5441V219.838ZM75.5441 226.675H82.3601V222.117H75.5441V226.675Z"/>
<path d="M88.2674 228.954V213H104.172V215.279H92.8115V219.838H101.9V222.117H92.8115V226.675H104.172V228.954H88.2674Z"/>
<path d="M105.535 228.954V213H121.439V215.279H110.079V219.838H119.167V222.117H110.079V226.675H121.439V228.954H105.535Z"/>
<path d="M122.802 228.954V213H127.346V219.838H134.162V213H138.706V228.954H134.162V222.117H127.346V228.954H122.802Z"/>
<path d="M142.342 228.954V226.675H146.886V215.279H142.342V213H155.974V215.279H151.43V226.675H155.974V228.954H142.342Z"/>
<path d="M164.153 228.954V226.675H161.881V224.396H159.609V222.117H157.337V213H161.881V219.838H164.153V222.117H166.425V219.838H168.697V213H173.241V222.117H170.969V224.396H168.697V226.675H166.425V228.954H164.153Z"/>
<path d="M174.604 228.954V213H190.509V215.279H179.148V219.838H188.237V222.117H179.148V226.675H190.509V228.954H174.604Z"/>
<path d="M102.123 243.331V234.74H109.464V235.967H110.687V238.422H109.464V239.649H110.687V242.103H109.464V243.331H102.123ZM104.57 238.422H108.24V235.967H104.57V238.422ZM104.57 242.103H108.24V239.649H104.57V242.103Z"/>
<path d="M115.091 243.331V239.649H113.868V238.422H112.644V234.74H115.091V238.422H117.538V234.74H119.985V238.422H118.761V239.649H117.538V243.331H115.091Z"/>
<path d="M128.059 243.331V234.74H135.4V235.967H136.623V238.422H135.4V239.649H136.623V242.103H135.4V243.331H128.059ZM130.506 238.422H134.176V235.967H130.506V238.422ZM130.506 242.103H134.176V239.649H130.506V242.103Z"/>
<path d="M137.406 243.331V242.103H139.853V235.967H137.406V234.74H144.746V235.967H142.3V242.103H144.746V243.331H137.406Z"/>
<path d="M148.074 243.331V235.967H145.627V234.74H152.968V235.967H150.521V243.331H148.074Z"/>
<path d="M154.925 243.331V242.103H153.702V234.74H156.149V239.649H157.372V234.74H158.595V239.649H159.819V234.74H162.266V242.103H161.042V243.331H159.819V242.103H158.595V240.876H157.372V242.103H156.149V243.331H154.925Z"/>
<path d="M164.223 243.331V242.103H163V235.967H164.223V234.74H170.34V235.967H171.563V242.103H170.34V243.331H164.223ZM165.446 242.103H169.117V235.967H165.446V242.103Z"/>
<path d="M172.297 243.331V234.74H179.638V235.967H180.861V239.649H178.414V240.876H179.638V242.103H180.861V243.331H177.191V242.103H175.968V240.876H174.744V243.331H172.297ZM174.744 239.649H177.191V238.422H178.414V235.967H174.744V239.649Z"/>
<path d="M181.595 243.331V240.876H182.819V239.649H184.042V238.422H182.819V237.194H181.595V234.74H184.042V237.194H185.265V238.422H186.489V237.194H187.712V234.74H190.159V237.194H188.936V238.422H187.712V239.649H188.936V240.876H190.159V243.331H187.712V240.876H186.489V239.649H185.265V240.876H184.042V243.331H181.595Z"/>
</mask>
<path d="M71 228.954V213H84.6322V215.279H86.9042V219.838H84.6322V222.117H86.9042V226.675H84.6322V228.954H71ZM75.5441 219.838H82.3601V215.279H75.5441V219.838ZM75.5441 226.675H82.3601V222.117H75.5441V226.675Z" fill="#FEFF00"/>
<path d="M88.2674 228.954V213H104.172V215.279H92.8115V219.838H101.9V222.117H92.8115V226.675H104.172V228.954H88.2674Z" fill="#FEFF00"/>
<path d="M105.535 228.954V213H121.439V215.279H110.079V219.838H119.167V222.117H110.079V226.675H121.439V228.954H105.535Z" fill="#FEFF00"/>
<path d="M122.802 228.954V213H127.346V219.838H134.162V213H138.706V228.954H134.162V222.117H127.346V228.954H122.802Z" fill="#FEFF00"/>
<path d="M142.342 228.954V226.675H146.886V215.279H142.342V213H155.974V215.279H151.43V226.675H155.974V228.954H142.342Z" fill="#FEFF00"/>
<path d="M164.153 228.954V226.675H161.881V224.396H159.609V222.117H157.337V213H161.881V219.838H164.153V222.117H166.425V219.838H168.697V213H173.241V222.117H170.969V224.396H168.697V226.675H166.425V228.954H164.153Z" fill="#FEFF00"/>
<path d="M174.604 228.954V213H190.509V215.279H179.148V219.838H188.237V222.117H179.148V226.675H190.509V228.954H174.604Z" fill="#FEFF00"/>
<path d="M102.123 243.331V234.74H109.464V235.967H110.687V238.422H109.464V239.649H110.687V242.103H109.464V243.331H102.123ZM104.57 238.422H108.24V235.967H104.57V238.422ZM104.57 242.103H108.24V239.649H104.57V242.103Z" fill="#FEFF00"/>
<path d="M115.091 243.331V239.649H113.868V238.422H112.644V234.74H115.091V238.422H117.538V234.74H119.985V238.422H118.761V239.649H117.538V243.331H115.091Z" fill="#FEFF00"/>
<path d="M128.059 243.331V234.74H135.4V235.967H136.623V238.422H135.4V239.649H136.623V242.103H135.4V243.331H128.059ZM130.506 238.422H134.176V235.967H130.506V238.422ZM130.506 242.103H134.176V239.649H130.506V242.103Z" fill="#FEFF00"/>
<path d="M137.406 243.331V242.103H139.853V235.967H137.406V234.74H144.746V235.967H142.3V242.103H144.746V243.331H137.406Z" fill="#FEFF00"/>
<path d="M148.074 243.331V235.967H145.627V234.74H152.968V235.967H150.521V243.331H148.074Z" fill="#FEFF00"/>
<path d="M154.925 243.331V242.103H153.702V234.74H156.149V239.649H157.372V234.74H158.595V239.649H159.819V234.74H162.266V242.103H161.042V243.331H159.819V242.103H158.595V240.876H157.372V242.103H156.149V243.331H154.925Z" fill="#FEFF00"/>
<path d="M164.223 243.331V242.103H163V235.967H164.223V234.74H170.34V235.967H171.563V242.103H170.34V243.331H164.223ZM165.446 242.103H169.117V235.967H165.446V242.103Z" fill="#FEFF00"/>
<path d="M172.297 243.331V234.74H179.638V235.967H180.861V239.649H178.414V240.876H179.638V242.103H180.861V243.331H177.191V242.103H175.968V240.876H174.744V243.331H172.297ZM174.744 239.649H177.191V238.422H178.414V235.967H174.744V239.649Z" fill="#FEFF00"/>
<path d="M181.595 243.331V240.876H182.819V239.649H184.042V238.422H182.819V237.194H181.595V234.74H184.042V237.194H185.265V238.422H186.489V237.194H187.712V234.74H190.159V237.194H188.936V238.422H187.712V239.649H188.936V240.876H190.159V243.331H187.712V240.876H186.489V239.649H185.265V240.876H184.042V243.331H181.595Z" fill="#FEFF00"/>
<path d="M71 228.954V213H84.6322V215.279H86.9042V219.838H84.6322V222.117H86.9042V226.675H84.6322V228.954H71ZM75.5441 219.838H82.3601V215.279H75.5441V219.838ZM75.5441 226.675H82.3601V222.117H75.5441V226.675Z" stroke="#1E1E1E" stroke-width="4" mask="url(#path-6-outside-1_309_361)"/>
<path d="M88.2674 228.954V213H104.172V215.279H92.8115V219.838H101.9V222.117H92.8115V226.675H104.172V228.954H88.2674Z" stroke="#1E1E1E" stroke-width="4" mask="url(#path-6-outside-1_309_361)"/>
<path d="M105.535 228.954V213H121.439V215.279H110.079V219.838H119.167V222.117H110.079V226.675H121.439V228.954H105.535Z" stroke="#1E1E1E" stroke-width="4" mask="url(#path-6-outside-1_309_361)"/>
<path d="M122.802 228.954V213H127.346V219.838H134.162V213H138.706V228.954H134.162V222.117H127.346V228.954H122.802Z" stroke="#1E1E1E" stroke-width="4" mask="url(#path-6-outside-1_309_361)"/>
<path d="M142.342 228.954V226.675H146.886V215.279H142.342V213H155.974V215.279H151.43V226.675H155.974V228.954H142.342Z" stroke="#1E1E1E" stroke-width="4" mask="url(#path-6-outside-1_309_361)"/>
<path d="M164.153 228.954V226.675H161.881V224.396H159.609V222.117H157.337V213H161.881V219.838H164.153V222.117H166.425V219.838H168.697V213H173.241V222.117H170.969V224.396H168.697V226.675H166.425V228.954H164.153Z" stroke="#1E1E1E" stroke-width="4" mask="url(#path-6-outside-1_309_361)"/>
<path d="M174.604 228.954V213H190.509V215.279H179.148V219.838H188.237V222.117H179.148V226.675H190.509V228.954H174.604Z" stroke="#1E1E1E" stroke-width="4" mask="url(#path-6-outside-1_309_361)"/>
<path d="M102.123 243.331V234.74H109.464V235.967H110.687V238.422H109.464V239.649H110.687V242.103H109.464V243.331H102.123ZM104.57 238.422H108.24V235.967H104.57V238.422ZM104.57 242.103H108.24V239.649H104.57V242.103Z" stroke="#1E1E1E" stroke-width="4" mask="url(#path-6-outside-1_309_361)"/>
<path d="M115.091 243.331V239.649H113.868V238.422H112.644V234.74H115.091V238.422H117.538V234.74H119.985V238.422H118.761V239.649H117.538V243.331H115.091Z" stroke="#1E1E1E" stroke-width="4" mask="url(#path-6-outside-1_309_361)"/>
<path d="M128.059 243.331V234.74H135.4V235.967H136.623V238.422H135.4V239.649H136.623V242.103H135.4V243.331H128.059ZM130.506 238.422H134.176V235.967H130.506V238.422ZM130.506 242.103H134.176V239.649H130.506V242.103Z" stroke="#1E1E1E" stroke-width="4" mask="url(#path-6-outside-1_309_361)"/>
<path d="M137.406 243.331V242.103H139.853V235.967H137.406V234.74H144.746V235.967H142.3V242.103H144.746V243.331H137.406Z" stroke="#1E1E1E" stroke-width="4" mask="url(#path-6-outside-1_309_361)"/>
<path d="M148.074 243.331V235.967H145.627V234.74H152.968V235.967H150.521V243.331H148.074Z" stroke="#1E1E1E" stroke-width="4" mask="url(#path-6-outside-1_309_361)"/>
<path d="M154.925 243.331V242.103H153.702V234.74H156.149V239.649H157.372V234.74H158.595V239.649H159.819V234.74H162.266V242.103H161.042V243.331H159.819V242.103H158.595V240.876H157.372V242.103H156.149V243.331H154.925Z" stroke="#1E1E1E" stroke-width="4" mask="url(#path-6-outside-1_309_361)"/>
<path d="M164.223 243.331V242.103H163V235.967H164.223V234.74H170.34V235.967H171.563V242.103H170.34V243.331H164.223ZM165.446 242.103H169.117V235.967H165.446V242.103Z" stroke="#1E1E1E" stroke-width="4" mask="url(#path-6-outside-1_309_361)"/>
<path d="M172.297 243.331V234.74H179.638V235.967H180.861V239.649H178.414V240.876H179.638V242.103H180.861V243.331H177.191V242.103H175.968V240.876H174.744V243.331H172.297ZM174.744 239.649H177.191V238.422H178.414V235.967H174.744V239.649Z" stroke="#1E1E1E" stroke-width="4" mask="url(#path-6-outside-1_309_361)"/>
<path d="M181.595 243.331V240.876H182.819V239.649H184.042V238.422H182.819V237.194H181.595V234.74H184.042V237.194H185.265V238.422H186.489V237.194H187.712V234.74H190.159V237.194H188.936V238.422H187.712V239.649H188.936V240.876H190.159V243.331H187.712V240.876H186.489V239.649H185.265V240.876H184.042V243.331H181.595Z" stroke="#1E1E1E" stroke-width="4" mask="url(#path-6-outside-1_309_361)"/>
<g clip-path="url(#clip2_309_361)">
<path d="M38 59.9998C23 64.4998 23 52.4998 17 50.9998M59 68.9998V57.3898C59.1125 55.9593 58.9193 54.5212 58.433 53.1712C57.9468 51.8211 57.1788 50.5901 56.18 49.5598C65.6 48.5098 75.5 44.9398 75.5 28.5598C75.4992 24.3713 73.8881 20.3434 71 17.3098C72.3676 13.6453 72.2709 9.59486 70.73 5.99981C70.73 5.99981 67.19 4.94981 59 10.4398C52.124 8.57628 44.876 8.57628 38 10.4398C29.81 4.94981 26.27 5.99981 26.27 5.99981C24.7291 9.59486 24.6324 13.6453 26 17.3098C23.0904 20.3659 21.4776 24.4302 21.5 28.6498C21.5 44.9098 31.4 48.4798 40.82 49.6498C39.833 50.6697 39.0718 51.886 38.5859 53.2196C38.1001 54.5531 37.9004 55.974 38 57.3898V68.9998" stroke="#F3F3F3" stroke-width="8" stroke-linecap="round" stroke-linejoin="round"/>
</g>
<g clip-path="url(#clip3_309_361)">
<path d="M229 51L217 39M217 39L205 51M217 39L217 66M242.17 58.17C245.096 56.5748 247.407 54.0506 248.74 50.9958C250.072 47.9411 250.349 44.5296 249.527 41.3C248.704 38.0704 246.83 35.2065 244.2 33.1603C241.569 31.1141 238.332 30.0022 235 30H231.22C230.312 26.4877 228.619 23.227 226.27 20.4629C223.92 17.6989 220.974 15.5035 217.654 14.0418C214.334 12.58 210.726 11.89 207.1 12.0236C203.475 12.1572 199.927 13.1109 196.723 14.8129C193.52 16.515 190.744 18.9213 188.604 21.8507C186.464 24.7801 185.016 28.1566 184.369 31.7261C183.722 35.2957 183.892 38.9655 184.868 42.4597C185.843 45.9539 187.598 49.1816 190 51.9" stroke="#F3F3F3" stroke-width="8" stroke-linecap="round" stroke-linejoin="round"/>
</g>
<path d="M129.309 68.1549C138.559 66.0452 146.2 64.2995 146.287 64.2754L146.447 64.2317L137.714 50.8204C132.91 43.4442 128.98 37.3805 128.98 37.3455C128.98 37.2793 137.998 5.21848 138.049 5.10434C138.066 5.06628 144.203 18.7452 152.925 38.2631C161.091 56.536 167.824 71.6021 167.886 71.7433L168 72L140.245 71.9954L112.49 71.9908L129.309 68.1549ZM96 64.0651C96 64.0462 100.115 54.8237 105.145 43.5706L114.289 23.1104L124.946 11.5641C130.807 5.2136 135.619 0.0099979 135.638 0.000246927C135.657 -0.00898046 135.58 0.241564 135.467 0.557276C135.353 0.872988 130.146 15.2931 123.895 32.602L112.529 64.0727L104.265 64.086C99.7191 64.0934 96 64.084 96 64.0651Z" fill="#F3F3F3"/>
<path d="M129.586 164.414C130.367 165.195 131.633 165.195 132.414 164.414L145.142 151.686C145.923 150.905 145.923 149.639 145.142 148.858C144.361 148.077 143.095 148.077 142.314 148.858L131 160.172L119.686 148.858C118.905 148.077 117.639 148.077 116.858 148.858C116.077 149.639 116.077 150.905 116.858 151.686L129.586 164.414ZM131 138H129V163H131H133V138H131Z" fill="#F3F3F3"/>
<path d="M190.586 490.414C191.367 491.195 192.633 491.195 193.414 490.414L206.142 477.686C206.923 476.905 206.923 475.639 206.142 474.858C205.361 474.077 204.095 474.077 203.314 474.858L192 486.172L180.686 474.858C179.905 474.077 178.639 474.077 177.858 474.858C177.077 475.639 177.077 476.905 177.858 477.686L190.586 490.414ZM192 461H190V489H192H194V461H192Z" fill="#F3F3F3"/>
<path d="M72.5858 489.414C73.3668 490.195 74.6332 490.195 75.4142 489.414L88.1421 476.686C88.9232 475.905 88.9232 474.639 88.1421 473.858C87.3611 473.077 86.0948 473.077 85.3137 473.858L74 485.172L62.6863 473.858C61.9052 473.077 60.6389 473.077 59.8579 473.858C59.0768 474.639 59.0768 475.905 59.8579 476.686L72.5858 489.414ZM74 461H72V488H74H76V461H74Z" fill="#F3F3F3"/>
<path d="M130.586 490.414C131.367 491.195 132.633 491.195 133.414 490.414L146.142 477.686C146.923 476.905 146.923 475.639 146.142 474.858C145.361 474.077 144.095 474.077 143.314 474.858L132 486.172L120.686 474.858C119.905 474.077 118.639 474.077 117.858 474.858C117.077 475.639 117.077 476.905 117.858 477.686L130.586 490.414ZM132 461H130V489H132H134V461H132Z" fill="#F3F3F3"/>
<g clip-path="url(#clip4_309_361)">
<path d="M68 520V526M80 520V526M68 558V564M80 558V564M90 536H96M90 546H96M52 536H58M52 546H58M62 526H86C88.2091 526 90 527.791 90 530V554C90 556.209 88.2091 558 86 558H62C59.7909 558 58 556.209 58 554V530C58 527.791 59.7909 526 62 526ZM68 536H80V548H68V536Z" stroke="#F3F3F3" stroke-width="5" stroke-linecap="round" stroke-linejoin="round"/>
</g>
<g clip-path="url(#clip5_309_361)">
<path d="M126 520V526M138 520V526M126 558V564M138 558V564M148 536H154M148 546H154M110 536H116M110 546H116M120 526H144C146.209 526 148 527.791 148 530V554C148 556.209 146.209 558 144 558H120C117.791 558 116 556.209 116 554V530C116 527.791 117.791 526 120 526ZM126 536H138V548H126V536Z" stroke="#F3F3F3" stroke-width="5" stroke-linecap="round" stroke-linejoin="round"/>
</g>
<g clip-path="url(#clip6_309_361)">
<path d="M184 520V526M196 520V526M184 558V564M196 558V564M206 536H212M206 546H212M168 536H174M168 546H174M178 526H202C204.209 526 206 527.791 206 530V554C206 556.209 204.209 558 202 558H178C175.791 558 174 556.209 174 554V530C174 527.791 175.791 526 178 526ZM184 536H196V548H184V536Z" stroke="#F3F3F3" stroke-width="5" stroke-linecap="round" stroke-linejoin="round"/>
</g>
<defs>
<clipPath id="clip0_309_361">
<rect width="56" height="56" fill="white" transform="translate(138 264)"/>
</clipPath>
<clipPath id="clip1_309_361">
<rect width="56" height="56" fill="white" transform="translate(67 264)"/>
</clipPath>
<clipPath id="clip2_309_361">
<rect width="72" height="72" fill="white" transform="translate(11 3)"/>
</clipPath>
<clipPath id="clip3_309_361">
<rect width="72" height="72" fill="white" transform="translate(181 3)"/>
</clipPath>
<clipPath id="clip4_309_361">
<rect width="48" height="48" fill="white" transform="translate(50 518)"/>
</clipPath>
<clipPath id="clip5_309_361">
<rect width="48" height="48" fill="white" transform="translate(108 518)"/>
</clipPath>
<clipPath id="clip6_309_361">
<rect width="48" height="48" fill="white" transform="translate(166 518)"/>
</clipPath>
</defs>
</svg>
