<svg width="229" height="52" viewBox="0 0 229 52" fill="none" xmlns="http://www.w3.org/2000/svg">
<rect width="229" height="51.2237" fill="#FEFF00"/>
<rect x="27.1187" y="18.079" width="3.01316" height="3.01316" transform="rotate(90 27.1187 18.079)" fill="#030F0F"/>
<rect x="24.105" y="12.0527" width="3.01316" height="3.01316" transform="rotate(90 24.105 12.0527)" fill="#F6F8ED"/>
<rect width="3.01316" height="3.01316" transform="matrix(-5.18986e-09 1 1 5.18986e-09 39.1704 12.0527)" fill="#F6F8ED"/>
<rect x="24.105" y="12.0527" width="3.01316" height="3.01316" transform="rotate(90 24.105 12.0527)" fill="#F6F8ED"/>
<rect width="3.01316" height="3.01316" transform="matrix(-5.18986e-09 1 1 5.18986e-09 39.1704 12.0527)" fill="#F6F8ED"/>
<rect x="30.1313" y="15.0658" width="3.01316" height="3.01316" transform="rotate(90 30.1313 15.0658)" fill="#F6F8ED"/>
<rect x="27.1187" y="15.0658" width="3.01316" height="3.01316" transform="rotate(90 27.1187 15.0658)" fill="#F6F8ED"/>
<rect x="24.105" y="15.0658" width="3.01316" height="3.01316" transform="rotate(90 24.105 15.0658)" fill="#F6F8ED"/>
<rect width="3.01316" height="3.01316" transform="matrix(-5.18986e-09 1 1 5.18986e-09 36.1577 15.0658)" fill="#F6F8ED"/>
<rect width="3.01316" height="3.01316" transform="matrix(-5.18986e-09 1 1 5.18986e-09 39.1704 15.0658)" fill="#F6F8ED"/>
<rect x="27.1187" y="9.03949" width="3.01316" height="3.01316" transform="rotate(90 27.1187 9.03949)" fill="#030F0F"/>
<rect x="27.1187" y="12.0527" width="3.01316" height="3.01316" transform="rotate(90 27.1187 12.0527)" fill="#F6F8ED"/>
<rect width="3.01316" height="3.01316" transform="matrix(-5.18986e-09 1 1 5.18986e-09 36.1577 12.0527)" fill="#F6F8ED"/>
<rect x="27.1187" y="12.0527" width="3.01316" height="3.01316" transform="rotate(90 27.1187 12.0527)" fill="#F6F8ED"/>
<rect width="3.01316" height="3.01316" transform="matrix(-5.18986e-09 1 1 5.18986e-09 36.1577 12.0527)" fill="#F6F8ED"/>
<rect x="33.1445" y="15.0658" width="3.01316" height="3.01316" transform="rotate(90 33.1445 15.0658)" fill="#F6F8ED"/>
<rect width="3.01316" height="3.01316" transform="matrix(-5.18986e-09 1 1 5.18986e-09 33.1445 15.0658)" fill="#F6F8ED"/>
<rect x="30.1313" y="12.0527" width="3.01316" height="3.01316" transform="rotate(90 30.1313 12.0527)" fill="#F6F8ED"/>
<rect width="3.01316" height="3.01316" transform="matrix(-5.18986e-09 1 1 5.18986e-09 33.1445 12.0527)" fill="#F6F8ED"/>
<rect x="30.1313" y="9.03949" width="3.01316" height="3.01316" transform="rotate(90 30.1313 9.03949)" fill="#030F0F"/>
<rect x="33.1445" y="12.0527" width="3.01316" height="3.01316" transform="rotate(90 33.1445 12.0527)" fill="#030F0F"/>
<rect x="36.1577" y="15.0658" width="3.01316" height="3.01316" transform="rotate(90 36.1577 15.0658)" fill="#030F0F"/>
<rect x="39.1704" y="9.03949" width="3.01316" height="3.01316" transform="rotate(90 39.1704 9.03949)" fill="#030F0F"/>
<rect x="36.1577" y="9.03949" width="3.01316" height="3.01316" transform="rotate(90 36.1577 9.03949)" fill="#030F0F"/>
<rect x="42.1841" y="9.03949" width="3.01316" height="3.01316" transform="rotate(90 42.1841 9.03949)" fill="#030F0F"/>
<rect x="45.1973" y="12.0527" width="3.01316" height="3.01316" transform="rotate(90 45.1973 12.0527)" fill="#030F0F"/>
<rect x="45.1973" y="15.0658" width="3.01316" height="3.01316" transform="rotate(90 45.1973 15.0658)" fill="#030F0F"/>
<rect x="30.1313" y="18.079" width="3.01316" height="3.01316" transform="rotate(90 30.1313 18.079)" fill="#030F0F"/>
<rect x="33.1445" y="18.079" width="3.01316" height="3.01316" transform="rotate(90 33.1445 18.079)" fill="#030F0F"/>
<rect x="27.1187" y="30.1316" width="3.01316" height="3.01316" transform="rotate(-180 27.1187 30.1316)" fill="#FEFF00"/>
<rect x="33.1445" y="30.1316" width="3.01316" height="3.01316" transform="rotate(-180 33.1445 30.1316)" fill="#FEFF00"/>
<rect x="36.1577" y="30.1316" width="3.01316" height="3.01316" transform="rotate(-180 36.1577 30.1316)" fill="#FEFF00"/>
<rect x="42.1841" y="30.1316" width="3.01316" height="3.01316" transform="rotate(-180 42.1841 30.1316)" fill="#FEFF00"/>
<rect x="39.1704" y="30.1316" width="3.01316" height="3.01316" transform="rotate(-180 39.1704 30.1316)" fill="#FEFF00"/>
<rect x="30.1313" y="30.1316" width="3.01316" height="3.01316" transform="rotate(-180 30.1313 30.1316)" fill="#FEFF00"/>
<rect x="36.1577" y="24.1053" width="3.01316" height="3.01316" transform="rotate(-180 36.1577 24.1053)" fill="#FEFF00"/>
<rect x="30.1313" y="24.1053" width="3.01316" height="3.01316" transform="rotate(-180 30.1313 24.1053)" fill="#FEFF00"/>
<rect x="33.1445" y="24.1053" width="3.01316" height="3.01316" transform="rotate(-180 33.1445 24.1053)" fill="#FEFF00"/>
<rect x="42.1841" y="24.1053" width="3.01316" height="3.01316" transform="rotate(-180 42.1841 24.1053)" fill="#FEFF00"/>
<rect x="42.1841" y="39.171" width="3.01316" height="3.01316" transform="rotate(-180 42.1841 39.171)" fill="#FEFF00"/>
<rect x="33.1445" y="39.171" width="3.01316" height="3.01316" transform="rotate(-180 33.1445 39.171)" fill="#FEFF00"/>
<rect x="36.1577" y="36.1579" width="3.01316" height="3.01316" transform="rotate(-180 36.1577 36.1579)" fill="#FEFF00"/>
<rect x="36.1577" y="39.171" width="3.01316" height="3.01316" transform="rotate(-180 36.1577 39.171)" fill="#FEFF00"/>
<rect x="39.1704" y="39.171" width="3.01316" height="3.01316" transform="rotate(-180 39.1704 39.171)" fill="#FEFF00"/>
<rect x="30.1313" y="39.171" width="3.01316" height="3.01316" transform="rotate(-180 30.1313 39.171)" fill="#FEFF00"/>
<rect x="33.1445" y="36.1579" width="3.01316" height="3.01316" transform="rotate(-180 33.1445 36.1579)" fill="#FEFF00"/>
<rect x="27.1187" y="36.1579" width="3.01316" height="3.01316" transform="rotate(-180 27.1187 36.1579)" fill="#FEFF00"/>
<rect x="27.1187" y="27.1184" width="3.01316" height="3.01316" transform="rotate(-180 27.1187 27.1184)" fill="#FEFF00"/>
<rect x="39.1704" y="24.1053" width="3.01316" height="3.01316" transform="rotate(-180 39.1704 24.1053)" fill="#FEFF00"/>
<rect x="39.1704" y="36.1579" width="3.01316" height="3.01316" transform="rotate(-180 39.1704 36.1579)" fill="#FEFF00"/>
<rect x="30.1313" y="36.1579" width="3.01316" height="3.01316" transform="rotate(-180 30.1313 36.1579)" fill="#FEFF00"/>
<rect x="33.1445" y="27.1184" width="3.01316" height="3.01316" transform="rotate(-180 33.1445 27.1184)" fill="#FEFF00"/>
<rect x="36.1577" y="27.1184" width="3.01316" height="3.01316" transform="rotate(-180 36.1577 27.1184)" fill="#FEFF00"/>
<rect x="42.1841" y="27.1184" width="3.01316" height="3.01316" transform="rotate(-180 42.1841 27.1184)" fill="#FEFF00"/>
<rect x="39.1704" y="27.1184" width="3.01316" height="3.01316" transform="rotate(-180 39.1704 27.1184)" fill="#FEFF00"/>
<rect x="30.1313" y="27.1184" width="3.01316" height="3.01316" transform="rotate(-180 30.1313 27.1184)" fill="#FEFF00"/>
<rect x="45.1973" y="27.1184" width="3.01316" height="3.01316" transform="rotate(-180 45.1973 27.1184)" fill="#FEFF00"/>
<rect x="36.1577" y="18.079" width="3.01316" height="3.01316" transform="rotate(90 36.1577 18.079)" fill="#030F0F"/>
<rect x="27.1187" y="33.1447" width="3.01316" height="3.01316" transform="rotate(-180 27.1187 33.1447)" fill="#FEFF00"/>
<rect x="33.1445" y="33.1447" width="3.01316" height="3.01316" transform="rotate(-180 33.1445 33.1447)" fill="#FEFF00"/>
<rect x="36.1577" y="33.1447" width="3.01316" height="3.01316" transform="rotate(-180 36.1577 33.1447)" fill="#FEFF00"/>
<rect x="42.1841" y="33.1447" width="3.01316" height="3.01316" transform="rotate(-180 42.1841 33.1447)" fill="#FEFF00"/>
<rect x="39.1704" y="33.1447" width="3.01316" height="3.01316" transform="rotate(-180 39.1704 33.1447)" fill="#FEFF00"/>
<rect x="30.1313" y="33.1447" width="3.01316" height="3.01316" transform="rotate(-180 30.1313 33.1447)" fill="#FEFF00"/>
<rect x="27.1187" y="36.1579" width="3.01316" height="3.01316" transform="rotate(-180 27.1187 36.1579)" fill="#FEFF00"/>
<rect x="33.1445" y="36.1579" width="3.01316" height="3.01316" transform="rotate(-180 33.1445 36.1579)" fill="#FEFF00"/>
<rect x="36.1577" y="36.1579" width="3.01316" height="3.01316" transform="rotate(-180 36.1577 36.1579)" fill="#FEFF00"/>
<rect x="42.1841" y="36.1579" width="3.01316" height="3.01316" transform="rotate(-180 42.1841 36.1579)" fill="#FEFF00"/>
<rect x="39.1704" y="36.1579" width="3.01316" height="3.01316" transform="rotate(-180 39.1704 36.1579)" fill="#FEFF00"/>
<rect x="30.1313" y="36.1579" width="3.01316" height="3.01316" transform="rotate(-180 30.1313 36.1579)" fill="#FEFF00"/>
<rect x="42.1841" y="36.1579" width="3.01316" height="3.01316" transform="rotate(-180 42.1841 36.1579)" fill="#FEFF00"/>
<rect x="45.1973" y="36.1579" width="3.01316" height="3.01316" transform="rotate(-180 45.1973 36.1579)" fill="#FEFF00"/>
<rect x="45.1973" y="33.1447" width="3.01316" height="3.01316" transform="rotate(-180 45.1973 33.1447)" fill="#FEFF00"/>
<rect x="45.1973" y="36.1579" width="3.01316" height="3.01316" transform="rotate(-180 45.1973 36.1579)" fill="#FEFF00"/>
<rect x="48.2104" y="30.1316" width="3.01316" height="3.01316" transform="rotate(-180 48.2104 30.1316)" fill="#FEFF00"/>
<rect x="48.2104" y="27.1184" width="3.01316" height="3.01316" transform="rotate(-180 48.2104 27.1184)" fill="#FEFF00"/>
<rect x="48.2104" y="33.1447" width="3.01316" height="3.01316" transform="rotate(-180 48.2104 33.1447)" fill="#FEFF00"/>
<rect x="48.2104" y="36.1579" width="3.01316" height="3.01316" transform="rotate(-180 48.2104 36.1579)" fill="#FEFF00"/>
<rect x="39.1704" y="18.079" width="3.01316" height="3.01316" transform="rotate(90 39.1704 18.079)" fill="#030F0F"/>
<rect x="51.2236" y="33.1447" width="3.01316" height="3.01316" transform="rotate(-180 51.2236 33.1447)" fill="#030F0F"/>
<rect x="51.2236" y="30.1316" width="3.01316" height="3.01316" transform="rotate(-180 51.2236 30.1316)" fill="#030F0F"/>
<rect x="48.2104" y="24.1053" width="3.01316" height="3.01316" transform="rotate(-180 48.2104 24.1053)" fill="#030F0F"/>
<rect x="45.1973" y="24.1053" width="3.01316" height="3.01316" transform="rotate(-180 45.1973 24.1053)" fill="#FEFF00"/>
<rect x="51.2236" y="27.1184" width="3.01316" height="3.01316" transform="rotate(-180 51.2236 27.1184)" fill="#030F0F"/>
<rect x="42.1841" y="21.0921" width="3.01316" height="3.01316" transform="rotate(-180 42.1841 21.0921)" fill="#030F0F"/>
<rect x="45.1973" y="21.0921" width="3.01316" height="3.01316" transform="rotate(-180 45.1973 21.0921)" fill="#030F0F"/>
<rect x="45.1973" y="30.1316" width="3.01316" height="3.01316" transform="rotate(-180 45.1973 30.1316)" fill="#FEFF00"/>
<rect x="45.1973" y="30.1316" width="3.01316" height="3.01316" transform="rotate(-180 45.1973 30.1316)" fill="#030F0F"/>
<rect x="36.1577" y="27.1184" width="3.01316" height="3.01316" transform="rotate(-180 36.1577 27.1184)" fill="#030F0F"/>
<rect x="30.1313" y="27.1184" width="3.01316" height="3.01316" transform="rotate(-180 30.1313 27.1184)" fill="#030F0F"/>
<rect x="36.1577" y="24.1053" width="3.01316" height="3.01316" transform="rotate(-180 36.1577 24.1053)" fill="#030F0F"/>
<rect x="30.1313" y="24.1053" width="3.01316" height="3.01316" transform="rotate(-180 30.1313 24.1053)" fill="#030F0F"/>
<rect x="27.1187" y="24.1053" width="3.01316" height="3.01316" transform="rotate(-180 27.1187 24.1053)" fill="#030F0F"/>
<rect x="36.1577" y="30.1316" width="3.01316" height="3.01316" transform="rotate(-180 36.1577 30.1316)" fill="#030F0F"/>
<rect x="30.1313" y="30.1316" width="3.01316" height="3.01316" transform="rotate(-180 30.1313 30.1316)" fill="#030F0F"/>
<rect x="36.1577" y="33.1447" width="3.01316" height="3.01316" transform="rotate(-180 36.1577 33.1447)" fill="#030F0F"/>
<rect x="30.1313" y="33.1447" width="3.01316" height="3.01316" transform="rotate(-180 30.1313 33.1447)" fill="#030F0F"/>
<rect x="36.1577" y="33.1447" width="3.01316" height="3.01316" transform="rotate(-180 36.1577 33.1447)" fill="#030F0F"/>
<rect x="30.1313" y="33.1447" width="3.01316" height="3.01316" transform="rotate(-180 30.1313 33.1447)" fill="#030F0F"/>
<rect x="36.1577" y="36.1579" width="3.01316" height="3.01316" transform="rotate(-180 36.1577 36.1579)" fill="#030F0F"/>
<rect x="30.1313" y="36.1579" width="3.01316" height="3.01316" transform="rotate(-180 30.1313 36.1579)" fill="#030F0F"/>
<rect x="30.1313" y="36.1579" width="3.01316" height="3.01316" transform="rotate(90 30.1313 36.1579)" fill="#030F0F"/>
<rect x="33.1445" y="36.1579" width="3.01316" height="3.01316" transform="rotate(90 33.1445 36.1579)" fill="#030F0F"/>
<rect x="36.1577" y="36.1579" width="3.01316" height="3.01316" transform="rotate(90 36.1577 36.1579)" fill="#030F0F"/>
<rect x="39.1704" y="36.1579" width="3.01316" height="3.01316" transform="rotate(90 39.1704 36.1579)" fill="#030F0F"/>
<rect x="42.1841" y="36.1579" width="3.01316" height="3.01316" transform="rotate(90 42.1841 36.1579)" fill="#030F0F"/>
<rect x="48.2104" y="36.1579" width="3.01316" height="3.01316" transform="rotate(-180 48.2104 36.1579)" fill="#030F0F"/>
<rect x="45.1973" y="39.171" width="3.01316" height="3.01316" transform="rotate(-180 45.1973 39.171)" fill="#030F0F"/>
<rect x="24.105" y="30.1316" width="3.01316" height="3.01316" transform="rotate(-180 24.105 30.1316)" fill="#030F0F"/>
<rect x="27.1187" y="30.1316" width="3.01316" height="3.01316" transform="rotate(-180 27.1187 30.1316)" fill="#FEFF00"/>
<rect x="27.1187" y="27.1184" width="3.01316" height="3.01316" transform="rotate(-180 27.1187 27.1184)" fill="#FEFF00"/>
<rect x="27.1187" y="36.1579" width="3.01316" height="3.01316" transform="rotate(-180 27.1187 36.1579)" fill="#FEFF00"/>
<rect x="24.105" y="33.1447" width="3.01316" height="3.01316" transform="rotate(-180 24.105 33.1447)" fill="#030F0F"/>
<rect x="21.0918" y="30.1316" width="3.01316" height="3.01316" transform="rotate(-180 21.0918 30.1316)" fill="#030F0F"/>
<rect x="27.1187" y="33.1447" width="3.01316" height="3.01316" transform="rotate(-180 27.1187 33.1447)" fill="#FEFF00"/>
<rect x="27.1187" y="36.1579" width="3.01316" height="3.01316" transform="rotate(-180 27.1187 36.1579)" fill="#FEFF00"/>
<rect x="27.1187" y="36.1579" width="3.01316" height="3.01316" transform="rotate(-180 27.1187 36.1579)" fill="#030F0F"/>
<rect x="24.105" y="27.1184" width="3.01316" height="3.01316" transform="rotate(-180 24.105 27.1184)" fill="#030F0F"/>
<rect x="24.105" y="15.0658" width="3.01316" height="3.01316" transform="rotate(90 24.105 15.0658)" fill="#030F0F"/>
<rect x="24.105" y="12.0527" width="3.01316" height="3.01316" transform="rotate(90 24.105 12.0527)" fill="#030F0F"/>
<rect x="27.1187" y="9.03949" width="3.01316" height="3.01316" transform="rotate(90 27.1187 9.03949)" fill="#030F0F"/>
<path d="M165.034 36.1579V15.3676H182.854V18.3376H185.824V24.2777H182.854V27.2478H179.884V30.2178H182.854V33.1879H185.824V36.1579H179.884V33.1879H176.914V30.2178H173.944V27.2478H170.974V36.1579H165.034ZM170.974 24.2777H179.884V18.3376H170.974V24.2777Z" fill="#030F0F"/>
<path d="M144.243 33.1879H141.273V18.3376H144.243V15.3676H159.094V18.3376H162.064V33.1879H159.094V36.1579H144.243V33.1879ZM147.214 33.1879H156.124V18.3376H147.214V33.1879Z" fill="#030F0F"/>
<path d="M138.303 15.3676V36.1579H132.363V30.2178H129.393V27.2478H126.423V30.2178H123.453V36.1579H117.513V15.3676H123.453V24.2777H126.423V21.3077H129.393V24.2777H132.363V15.3676H138.303Z" fill="#030F0F"/>
<path d="M97.4253 18.3376V15.3676H115.246V18.3376H109.305V36.1579H103.365V18.3376H97.4253Z" fill="#030F0F"/>
<path d="M88.9674 36.1579V33.1879L88.9673 18.3376L88.9674 15.3676H94.9074V18.3376V33.1879V36.1579H88.9674Z" fill="#030F0F"/>
<path d="M70.2209 24.2777H79.131V18.3376H70.2209V24.2777ZM82.1011 27.2478H85.0711V33.1879H82.1011V36.1579H64.2808V15.3676H82.1011V18.3376H85.0711V24.2777H82.1011V27.2478ZM79.131 33.1879V27.2478H70.2209V33.1879H79.131Z" fill="#030F0F"/>
<rect x="191.857" y="18.079" width="3.01316" height="3.01316" fill="#030F0F"/>
<rect x="191.857" y="15.0658" width="3.01316" height="3.01316" fill="#030F0F"/>
<rect x="200.896" y="15.0658" width="3.01316" height="3.01316" fill="#030F0F"/>
<rect x="200.896" y="33.1447" width="3.01316" height="3.01316" fill="#030F0F"/>
<rect x="191.857" y="33.1447" width="3.01316" height="3.01316" fill="#030F0F"/>
<rect x="194.87" y="27.1184" width="3.01316" height="3.01316" fill="#030F0F"/>
<rect x="194.87" y="21.0921" width="3.01316" height="3.01316" fill="#030F0F"/>
<rect x="197.883" y="21.0921" width="3.01316" height="3.01316" fill="#030F0F"/>
<rect x="197.883" y="27.1184" width="3.01316" height="3.01316" fill="#030F0F"/>
<rect width="3.01316" height="3.01316" transform="matrix(1 0 0 -1 191.857 33.1447)" fill="#030F0F"/>
<rect width="3.01316" height="3.01316" transform="matrix(-1 0 0 1 203.91 18.079)" fill="#030F0F"/>
<rect x="203.91" y="33.1447" width="3.01316" height="3.01316" transform="rotate(180 203.91 33.1447)" fill="#030F0F"/>
<rect x="188.844" y="18.079" width="3.01316" height="3.01316" fill="#030F0F"/>
<rect width="3.01316" height="3.01316" transform="matrix(1 0 0 -1 188.844 33.1447)" fill="#030F0F"/>
<rect width="3.01316" height="3.01316" transform="matrix(-1 0 0 1 206.923 18.079)" fill="#030F0F"/>
<rect x="206.923" y="33.1447" width="3.01316" height="3.01316" transform="rotate(180 206.923 33.1447)" fill="#030F0F"/>
<rect x="188.844" y="15.0658" width="3.01316" height="3.01316" fill="#030F0F"/>
<rect width="3.01316" height="3.01316" transform="matrix(1 0 0 -1 188.844 36.1579)" fill="#030F0F"/>
<rect width="3.01316" height="3.01316" transform="matrix(-1 0 0 1 206.923 15.0658)" fill="#030F0F"/>
<rect x="206.923" y="36.1579" width="3.01316" height="3.01316" transform="rotate(180 206.923 36.1579)" fill="#030F0F"/>
<rect x="197.883" y="24.1053" width="3.01316" height="3.01316" fill="#030F0F"/>
<rect x="194.87" y="24.1053" width="3.01316" height="3.01316" fill="#030F0F"/>
<rect x="191.857" y="27.1184" width="3.01316" height="3.01316" fill="#030F0F"/>
<rect x="200.896" y="27.1184" width="3.01316" height="3.01316" fill="#030F0F"/>
<rect x="191.857" y="21.0921" width="3.01316" height="3.01316" fill="#030F0F"/>
<rect x="200.896" y="21.0921" width="3.01316" height="3.01316" fill="#030F0F"/>
</svg>
