<svg width="270" height="83" viewBox="0 0 270 83" fill="none" xmlns="http://www.w3.org/2000/svg">
<rect width="270" height="82.3018" fill="#FEFF00"/>
<rect x="27.0781" y="29.6167" width="5.56122" height="5.45455" transform="rotate(90 27.0781 29.6167)" fill="#030F0F"/>
<rect x="21.623" y="18.4941" width="5.56122" height="5.45455" transform="rotate(90 21.623 18.4941)" fill="#F6F8ED"/>
<rect width="5.56122" height="5.45455" transform="matrix(-5.09031e-09 1 1 5.29136e-09 48.896 18.4941)" fill="#F6F8ED"/>
<rect x="21.623" y="18.4941" width="5.56122" height="5.45455" transform="rotate(90 21.623 18.4941)" fill="#F6F8ED"/>
<rect width="5.56122" height="5.45455" transform="matrix(-5.09031e-09 1 1 5.29136e-09 48.896 18.4941)" fill="#F6F8ED"/>
<rect x="32.5327" y="24.0557" width="5.56122" height="5.45455" transform="rotate(90 32.5327 24.0557)" fill="#F6F8ED"/>
<rect x="27.0781" y="24.0557" width="5.56122" height="5.45455" transform="rotate(90 27.0781 24.0557)" fill="#F6F8ED"/>
<rect x="21.623" y="24.0557" width="5.56122" height="5.45455" transform="rotate(90 21.623 24.0557)" fill="#F6F8ED"/>
<rect width="5.56122" height="5.45455" transform="matrix(-5.09031e-09 1 1 5.29136e-09 43.4414 24.0557)" fill="#F6F8ED"/>
<rect width="5.56122" height="5.45455" transform="matrix(-5.09031e-09 1 1 5.29136e-09 48.896 24.0557)" fill="#F6F8ED"/>
<rect x="27.0781" y="12.9331" width="5.56122" height="5.45455" transform="rotate(90 27.0781 12.9331)" fill="#030F0F"/>
<rect x="27.0781" y="18.4941" width="5.56122" height="5.45455" transform="rotate(90 27.0781 18.4941)" fill="#F6F8ED"/>
<rect width="5.56122" height="5.45455" transform="matrix(-5.09031e-09 1 1 5.29136e-09 43.4414 18.4941)" fill="#F6F8ED"/>
<rect x="27.0781" y="18.4941" width="5.56122" height="5.45455" transform="rotate(90 27.0781 18.4941)" fill="#F6F8ED"/>
<rect width="5.56122" height="5.45455" transform="matrix(-5.09031e-09 1 1 5.29136e-09 43.4414 18.4941)" fill="#F6F8ED"/>
<rect x="37.9873" y="24.0557" width="5.56122" height="5.45455" transform="rotate(90 37.9873 24.0557)" fill="#F6F8ED"/>
<rect width="5.56122" height="5.45455" transform="matrix(-5.09031e-09 1 1 5.29136e-09 37.9873 24.0557)" fill="#F6F8ED"/>
<rect x="32.5327" y="18.4941" width="5.56122" height="5.45455" transform="rotate(90 32.5327 18.4941)" fill="#F6F8ED"/>
<rect width="5.56122" height="5.45455" transform="matrix(-5.09031e-09 1 1 5.29136e-09 37.9873 18.4941)" fill="#F6F8ED"/>
<rect x="32.5327" y="12.9331" width="5.56122" height="5.45455" transform="rotate(90 32.5327 12.9331)" fill="#030F0F"/>
<rect x="37.9873" y="18.4941" width="5.56122" height="5.45455" transform="rotate(90 37.9873 18.4941)" fill="#030F0F"/>
<rect x="43.4414" y="24.0557" width="5.56122" height="5.45455" transform="rotate(90 43.4414 24.0557)" fill="#030F0F"/>
<rect x="48.896" y="12.9331" width="5.56122" height="5.45455" transform="rotate(90 48.896 12.9331)" fill="#030F0F"/>
<rect x="43.4414" y="12.9331" width="5.56122" height="5.45455" transform="rotate(90 43.4414 12.9331)" fill="#030F0F"/>
<rect x="54.3506" y="12.9331" width="5.56122" height="5.45455" transform="rotate(90 54.3506 12.9331)" fill="#030F0F"/>
<rect x="59.8052" y="18.4941" width="5.56122" height="5.45455" transform="rotate(90 59.8052 18.4941)" fill="#030F0F"/>
<rect x="59.8052" y="24.0557" width="5.56122" height="5.45455" transform="rotate(90 59.8052 24.0557)" fill="#030F0F"/>
<rect x="32.5327" y="29.6167" width="5.56122" height="5.45455" transform="rotate(90 32.5327 29.6167)" fill="#030F0F"/>
<rect x="37.9873" y="29.6167" width="5.56122" height="5.45455" transform="rotate(90 37.9873 29.6167)" fill="#030F0F"/>
<rect x="27.0781" y="51.8618" width="5.45455" height="5.56122" transform="rotate(-180 27.0781 51.8618)" fill="#FEFF00"/>
<rect x="37.9873" y="51.8618" width="5.45455" height="5.56122" transform="rotate(-180 37.9873 51.8618)" fill="#FEFF00"/>
<rect x="43.4414" y="51.8618" width="5.45455" height="5.56122" transform="rotate(-180 43.4414 51.8618)" fill="#FEFF00"/>
<rect x="54.3506" y="51.8618" width="5.45455" height="5.56122" transform="rotate(-180 54.3506 51.8618)" fill="#FEFF00"/>
<rect x="48.896" y="51.8618" width="5.45455" height="5.56122" transform="rotate(-180 48.896 51.8618)" fill="#FEFF00"/>
<rect x="32.5327" y="51.8618" width="5.45455" height="5.56122" transform="rotate(-180 32.5327 51.8618)" fill="#FEFF00"/>
<rect x="43.4414" y="40.7393" width="5.45455" height="5.56122" transform="rotate(-180 43.4414 40.7393)" fill="#FEFF00"/>
<rect x="32.5327" y="40.7393" width="5.45455" height="5.56122" transform="rotate(-180 32.5327 40.7393)" fill="#FEFF00"/>
<rect x="37.9873" y="40.7393" width="5.45455" height="5.56122" transform="rotate(-180 37.9873 40.7393)" fill="#FEFF00"/>
<rect x="54.3506" y="40.7393" width="5.45455" height="5.56122" transform="rotate(-180 54.3506 40.7393)" fill="#FEFF00"/>
<rect x="54.3506" y="68.5454" width="5.45455" height="5.56122" transform="rotate(-180 54.3506 68.5454)" fill="#FEFF00"/>
<rect x="37.9873" y="68.5454" width="5.45455" height="5.56122" transform="rotate(-180 37.9873 68.5454)" fill="#FEFF00"/>
<rect x="43.4414" y="62.9844" width="5.45455" height="5.56122" transform="rotate(-180 43.4414 62.9844)" fill="#FEFF00"/>
<rect x="43.4414" y="68.5454" width="5.45455" height="5.56122" transform="rotate(-180 43.4414 68.5454)" fill="#FEFF00"/>
<rect x="48.896" y="68.5454" width="5.45455" height="5.56122" transform="rotate(-180 48.896 68.5454)" fill="#FEFF00"/>
<rect x="32.5327" y="68.5454" width="5.45455" height="5.56122" transform="rotate(-180 32.5327 68.5454)" fill="#FEFF00"/>
<rect x="37.9873" y="62.9844" width="5.45455" height="5.56122" transform="rotate(-180 37.9873 62.9844)" fill="#FEFF00"/>
<rect x="27.0781" y="62.9844" width="5.45455" height="5.56122" transform="rotate(-180 27.0781 62.9844)" fill="#FEFF00"/>
<rect x="27.0781" y="46.3003" width="5.45455" height="5.56122" transform="rotate(-180 27.0781 46.3003)" fill="#FEFF00"/>
<rect x="48.896" y="40.7393" width="5.45455" height="5.56122" transform="rotate(-180 48.896 40.7393)" fill="#FEFF00"/>
<rect x="48.896" y="62.9844" width="5.45455" height="5.56122" transform="rotate(-180 48.896 62.9844)" fill="#FEFF00"/>
<rect x="32.5327" y="62.9844" width="5.45455" height="5.56122" transform="rotate(-180 32.5327 62.9844)" fill="#FEFF00"/>
<rect x="37.9873" y="46.3003" width="5.45455" height="5.56122" transform="rotate(-180 37.9873 46.3003)" fill="#FEFF00"/>
<rect x="43.4414" y="46.3003" width="5.45455" height="5.56122" transform="rotate(-180 43.4414 46.3003)" fill="#FEFF00"/>
<rect x="54.3506" y="46.3003" width="5.45455" height="5.56122" transform="rotate(-180 54.3506 46.3003)" fill="#FEFF00"/>
<rect x="48.896" y="46.3003" width="5.45455" height="5.56122" transform="rotate(-180 48.896 46.3003)" fill="#FEFF00"/>
<rect x="32.5327" y="46.3003" width="5.45455" height="5.56122" transform="rotate(-180 32.5327 46.3003)" fill="#FEFF00"/>
<rect x="59.8052" y="46.3003" width="5.45455" height="5.56122" transform="rotate(-180 59.8052 46.3003)" fill="#FEFF00"/>
<rect x="43.4414" y="29.6167" width="5.56122" height="5.45455" transform="rotate(90 43.4414 29.6167)" fill="#030F0F"/>
<rect x="27.0781" y="57.4229" width="5.45455" height="5.56122" transform="rotate(-180 27.0781 57.4229)" fill="#FEFF00"/>
<rect x="37.9873" y="57.4229" width="5.45455" height="5.56122" transform="rotate(-180 37.9873 57.4229)" fill="#FEFF00"/>
<rect x="43.4414" y="57.4229" width="5.45455" height="5.56122" transform="rotate(-180 43.4414 57.4229)" fill="#FEFF00"/>
<rect x="54.3506" y="57.4229" width="5.45455" height="5.56122" transform="rotate(-180 54.3506 57.4229)" fill="#FEFF00"/>
<rect x="48.896" y="57.4229" width="5.45455" height="5.56122" transform="rotate(-180 48.896 57.4229)" fill="#FEFF00"/>
<rect x="32.5327" y="57.4229" width="5.45455" height="5.56122" transform="rotate(-180 32.5327 57.4229)" fill="#FEFF00"/>
<rect x="27.0781" y="62.9844" width="5.45455" height="5.56122" transform="rotate(-180 27.0781 62.9844)" fill="#FEFF00"/>
<rect x="37.9873" y="62.9844" width="5.45455" height="5.56122" transform="rotate(-180 37.9873 62.9844)" fill="#FEFF00"/>
<rect x="43.4414" y="62.9844" width="5.45455" height="5.56122" transform="rotate(-180 43.4414 62.9844)" fill="#FEFF00"/>
<rect x="54.3506" y="62.9844" width="5.45455" height="5.56122" transform="rotate(-180 54.3506 62.9844)" fill="#FEFF00"/>
<rect x="48.896" y="62.9844" width="5.45455" height="5.56122" transform="rotate(-180 48.896 62.9844)" fill="#FEFF00"/>
<rect x="32.5327" y="62.9844" width="5.45455" height="5.56122" transform="rotate(-180 32.5327 62.9844)" fill="#FEFF00"/>
<rect x="54.3506" y="62.9844" width="5.45455" height="5.56122" transform="rotate(-180 54.3506 62.9844)" fill="#FEFF00"/>
<rect x="59.8052" y="62.9844" width="5.45455" height="5.56122" transform="rotate(-180 59.8052 62.9844)" fill="#FEFF00"/>
<rect x="59.8052" y="57.4229" width="5.45455" height="5.56122" transform="rotate(-180 59.8052 57.4229)" fill="#FEFF00"/>
<rect x="59.8052" y="62.9844" width="5.45455" height="5.56122" transform="rotate(-180 59.8052 62.9844)" fill="#FEFF00"/>
<rect x="65.2598" y="51.8618" width="5.45455" height="5.56122" transform="rotate(-180 65.2598 51.8618)" fill="#FEFF00"/>
<rect x="65.2598" y="46.3003" width="5.45455" height="5.56122" transform="rotate(-180 65.2598 46.3003)" fill="#FEFF00"/>
<rect x="65.2598" y="57.4229" width="5.45455" height="5.56122" transform="rotate(-180 65.2598 57.4229)" fill="#FEFF00"/>
<rect x="65.2598" y="62.9844" width="5.45455" height="5.56122" transform="rotate(-180 65.2598 62.9844)" fill="#FEFF00"/>
<rect x="48.896" y="29.6167" width="5.56122" height="5.45455" transform="rotate(90 48.896 29.6167)" fill="#030F0F"/>
<rect x="70.7144" y="57.4229" width="5.45455" height="5.56122" transform="rotate(-180 70.7144 57.4229)" fill="#030F0F"/>
<rect x="70.7144" y="51.8618" width="5.45455" height="5.56122" transform="rotate(-180 70.7144 51.8618)" fill="#030F0F"/>
<rect x="65.2598" y="40.7393" width="5.45455" height="5.56122" transform="rotate(-180 65.2598 40.7393)" fill="#030F0F"/>
<rect x="59.8052" y="40.7393" width="5.45455" height="5.56122" transform="rotate(-180 59.8052 40.7393)" fill="#FEFF00"/>
<rect x="70.7144" y="46.3003" width="5.45455" height="5.56122" transform="rotate(-180 70.7144 46.3003)" fill="#030F0F"/>
<rect x="54.3506" y="35.1782" width="5.45455" height="5.56122" transform="rotate(-180 54.3506 35.1782)" fill="#030F0F"/>
<rect x="59.8052" y="35.1782" width="5.45455" height="5.56122" transform="rotate(-180 59.8052 35.1782)" fill="#030F0F"/>
<rect x="59.8052" y="51.8618" width="5.45455" height="5.56122" transform="rotate(-180 59.8052 51.8618)" fill="#FEFF00"/>
<rect x="59.8052" y="51.8618" width="5.45455" height="5.56122" transform="rotate(-180 59.8052 51.8618)" fill="#030F0F"/>
<rect x="43.4414" y="46.3003" width="5.45455" height="5.56122" transform="rotate(-180 43.4414 46.3003)" fill="#030F0F"/>
<rect x="32.5327" y="46.3003" width="5.45455" height="5.56122" transform="rotate(-180 32.5327 46.3003)" fill="#030F0F"/>
<rect x="43.4414" y="40.7393" width="5.45455" height="5.56122" transform="rotate(-180 43.4414 40.7393)" fill="#030F0F"/>
<rect x="32.5327" y="40.7393" width="5.45455" height="5.56122" transform="rotate(-180 32.5327 40.7393)" fill="#030F0F"/>
<rect x="27.0781" y="40.7393" width="5.45455" height="5.56122" transform="rotate(-180 27.0781 40.7393)" fill="#030F0F"/>
<rect x="43.4414" y="51.8618" width="5.45455" height="5.56122" transform="rotate(-180 43.4414 51.8618)" fill="#030F0F"/>
<rect x="32.5327" y="51.8618" width="5.45455" height="5.56122" transform="rotate(-180 32.5327 51.8618)" fill="#030F0F"/>
<rect x="43.4414" y="57.4229" width="5.45455" height="5.56122" transform="rotate(-180 43.4414 57.4229)" fill="#030F0F"/>
<rect x="32.5327" y="57.4229" width="5.45455" height="5.56122" transform="rotate(-180 32.5327 57.4229)" fill="#030F0F"/>
<rect x="43.4414" y="57.4229" width="5.45455" height="5.56122" transform="rotate(-180 43.4414 57.4229)" fill="#030F0F"/>
<rect x="32.5327" y="57.4229" width="5.45455" height="5.56122" transform="rotate(-180 32.5327 57.4229)" fill="#030F0F"/>
<rect x="43.4414" y="62.9844" width="5.45455" height="5.56122" transform="rotate(-180 43.4414 62.9844)" fill="#030F0F"/>
<rect x="32.5327" y="62.9844" width="5.45455" height="5.56122" transform="rotate(-180 32.5327 62.9844)" fill="#030F0F"/>
<rect x="32.5327" y="62.9844" width="5.56122" height="5.45455" transform="rotate(90 32.5327 62.9844)" fill="#030F0F"/>
<rect x="37.9873" y="62.9844" width="5.56122" height="5.45455" transform="rotate(90 37.9873 62.9844)" fill="#030F0F"/>
<rect x="43.4414" y="62.9844" width="5.56122" height="5.45455" transform="rotate(90 43.4414 62.9844)" fill="#030F0F"/>
<rect x="48.896" y="62.9844" width="5.56122" height="5.45455" transform="rotate(90 48.896 62.9844)" fill="#030F0F"/>
<rect x="54.3506" y="62.9844" width="5.56122" height="5.45455" transform="rotate(90 54.3506 62.9844)" fill="#030F0F"/>
<rect x="65.2598" y="62.9844" width="5.45455" height="5.56122" transform="rotate(-180 65.2598 62.9844)" fill="#030F0F"/>
<rect x="59.8052" y="68.5454" width="5.45455" height="5.56122" transform="rotate(-180 59.8052 68.5454)" fill="#030F0F"/>
<rect x="21.623" y="51.8618" width="5.45455" height="5.56122" transform="rotate(-180 21.623 51.8618)" fill="#030F0F"/>
<rect x="27.0781" y="51.8618" width="5.45455" height="5.56122" transform="rotate(-180 27.0781 51.8618)" fill="#FEFF00"/>
<rect x="27.0781" y="46.3003" width="5.45455" height="5.56122" transform="rotate(-180 27.0781 46.3003)" fill="#FEFF00"/>
<rect x="27.0781" y="62.9844" width="5.45455" height="5.56122" transform="rotate(-180 27.0781 62.9844)" fill="#FEFF00"/>
<rect x="21.623" y="57.4229" width="5.45455" height="5.56122" transform="rotate(-180 21.623 57.4229)" fill="#030F0F"/>
<rect x="16.1689" y="51.8618" width="5.45455" height="5.56122" transform="rotate(-180 16.1689 51.8618)" fill="#030F0F"/>
<rect x="27.0781" y="57.4229" width="5.45455" height="5.56122" transform="rotate(-180 27.0781 57.4229)" fill="#FEFF00"/>
<rect x="27.0781" y="62.9844" width="5.45455" height="5.56122" transform="rotate(-180 27.0781 62.9844)" fill="#FEFF00"/>
<rect x="27.0781" y="62.9844" width="5.45455" height="5.56122" transform="rotate(-180 27.0781 62.9844)" fill="#030F0F"/>
<rect x="21.623" y="46.3003" width="5.45455" height="5.56122" transform="rotate(-180 21.623 46.3003)" fill="#030F0F"/>
<rect x="21.623" y="24.0557" width="5.56122" height="5.45455" transform="rotate(90 21.623 24.0557)" fill="#030F0F"/>
<rect x="21.623" y="18.4941" width="5.56122" height="5.45455" transform="rotate(90 21.623 18.4941)" fill="#030F0F"/>
<rect x="27.0781" y="12.9331" width="5.56122" height="5.45455" transform="rotate(90 27.0781 12.9331)" fill="#030F0F"/>
<path d="M87.3786 43.75V40.5H84.1286V21H90.6286V40.5H100.379V21H106.879V40.5H103.629V43.75H87.3786ZM108.829 43.75V21H128.329V24.25H131.579V34H128.329V37.25H115.329V43.75H108.829ZM115.329 34H125.079V24.25H115.329V34ZM133.529 43.75V21H149.779V24.25H153.029V27.5H156.279V37.25H153.029V40.5H149.779V43.75H133.529ZM140.029 40.5H146.529V37.25H149.779V27.5H146.529V24.25H140.029V40.5ZM158.229 43.75V27.5H161.479V24.25H164.729V21H174.479V24.25H177.729V27.5H180.979V43.75H174.479V37.25H164.729V43.75H158.229ZM164.729 34H174.479V27.5H171.229V24.25H167.979V27.5H164.729V34ZM188.779 43.75V24.25H182.279V21H201.779V24.25H195.279V43.75H188.779ZM203.729 43.75V21H226.479V24.25H210.229V30.75H223.229V34H210.229V40.5H226.479V43.75H203.729ZM228.429 43.75V21H247.929V24.25H251.179V34H244.679V37.25H247.929V40.5H251.179V43.75H241.429V40.5H238.179V37.25H234.929V43.75H228.429ZM234.929 34H241.429V30.75H244.679V24.25H234.929V34ZM126.749 63.25V51H137.249V52.75H138.999V56.25H137.249V58H138.999V61.5H137.249V63.25H126.749ZM130.249 56.25H135.499V52.75H130.249V56.25ZM130.249 61.5H135.499V58H130.249V61.5ZM145.299 63.25V58H143.549V56.25H141.799V51H145.299V56.25H148.799V51H152.299V56.25H150.549V58H148.799V63.25H145.299ZM163.849 63.25V51H174.349V52.75H176.099V56.25H174.349V58H176.099V61.5H174.349V63.25H163.849ZM167.349 56.25H172.599V52.75H167.349V56.25ZM167.349 61.5H172.599V58H167.349V61.5ZM177.219 63.25V61.5H180.719V52.75H177.219V51H187.719V52.75H184.219V61.5H187.719V63.25H177.219ZM192.479 63.25V52.75H188.979V51H199.479V52.75H195.979V63.25H192.479ZM202.279 63.25V61.5H200.529V51H204.029V58H205.779V51H207.529V58H209.279V51H212.779V61.5H211.029V63.25H209.279V61.5H207.529V59.75H205.779V61.5H204.029V63.25H202.279ZM215.579 63.25V61.5H213.829V52.75H215.579V51H224.329V52.75H226.079V61.5H224.329V63.25H215.579ZM217.329 61.5H222.579V52.75H217.329V61.5ZM227.129 63.25V51H237.629V52.75H239.379V58H235.879V59.75H237.629V61.5H239.379V63.25H234.129V61.5H232.379V59.75H230.629V63.25H227.129ZM230.629 58H234.129V56.25H235.879V52.75H230.629V58ZM240.429 63.25V59.75H242.179V58H243.929V56.25H242.179V54.5H240.429V51H243.929V54.5H245.679V56.25H247.429V54.5H249.179V51H252.679V54.5H250.929V56.25H249.179V58H250.929V59.75H252.679V63.25H249.179V59.75H247.429V58H245.679V59.75H243.929V63.25H240.429Z" fill="#030F0F"/>
</svg>
