<svg width="250" height="56" viewBox="0 0 250 56" fill="none" xmlns="http://www.w3.org/2000/svg">
<rect x="16.3638" y="16.6836" width="5.56122" height="5.45455" transform="rotate(90 16.3638 16.6836)" fill="#030F0F"/>
<rect x="10.9087" y="5.56104" width="5.56122" height="5.45455" transform="rotate(90 10.9087 5.56104)" fill="#F6F8ED"/>
<rect width="5.56122" height="5.45455" transform="matrix(-5.09031e-09 1 1 5.29136e-09 38.1816 5.56104)" fill="#F6F8ED"/>
<rect x="10.9087" y="5.56104" width="5.56122" height="5.45455" transform="rotate(90 10.9087 5.56104)" fill="#F6F8ED"/>
<rect width="5.56122" height="5.45455" transform="matrix(-5.09031e-09 1 1 5.29136e-09 38.1816 5.56104)" fill="#F6F8ED"/>
<rect x="21.8184" y="11.1226" width="5.56122" height="5.45455" transform="rotate(90 21.8184 11.1226)" fill="#F6F8ED"/>
<rect x="16.3638" y="11.1226" width="5.56122" height="5.45455" transform="rotate(90 16.3638 11.1226)" fill="#F6F8ED"/>
<rect x="10.9087" y="11.1226" width="5.56122" height="5.45455" transform="rotate(90 10.9087 11.1226)" fill="#F6F8ED"/>
<rect width="5.56122" height="5.45455" transform="matrix(-5.09031e-09 1 1 5.29136e-09 32.7271 11.1226)" fill="#F6F8ED"/>
<rect width="5.56122" height="5.45455" transform="matrix(-5.09031e-09 1 1 5.29136e-09 38.1816 11.1226)" fill="#F6F8ED"/>
<rect x="16.3638" width="5.56122" height="5.45455" transform="rotate(90 16.3638 0)" fill="#030F0F"/>
<rect x="16.3638" y="5.56104" width="5.56122" height="5.45455" transform="rotate(90 16.3638 5.56104)" fill="#F6F8ED"/>
<rect width="5.56122" height="5.45455" transform="matrix(-5.09031e-09 1 1 5.29136e-09 32.7271 5.56104)" fill="#F6F8ED"/>
<rect x="16.3638" y="5.56104" width="5.56122" height="5.45455" transform="rotate(90 16.3638 5.56104)" fill="#F6F8ED"/>
<rect width="5.56122" height="5.45455" transform="matrix(-5.09031e-09 1 1 5.29136e-09 32.7271 5.56104)" fill="#F6F8ED"/>
<rect x="27.2729" y="11.1226" width="5.56122" height="5.45455" transform="rotate(90 27.2729 11.1226)" fill="#F6F8ED"/>
<rect width="5.56122" height="5.45455" transform="matrix(-5.09031e-09 1 1 5.29136e-09 27.2729 11.1226)" fill="#F6F8ED"/>
<rect x="21.8184" y="5.56104" width="5.56122" height="5.45455" transform="rotate(90 21.8184 5.56104)" fill="#F6F8ED"/>
<rect width="5.56122" height="5.45455" transform="matrix(-5.09031e-09 1 1 5.29136e-09 27.2729 5.56104)" fill="#F6F8ED"/>
<rect x="21.8184" width="5.56122" height="5.45455" transform="rotate(90 21.8184 0)" fill="#030F0F"/>
<rect x="27.2729" y="5.56104" width="5.56122" height="5.45455" transform="rotate(90 27.2729 5.56104)" fill="#030F0F"/>
<rect x="32.7271" y="11.1226" width="5.56122" height="5.45455" transform="rotate(90 32.7271 11.1226)" fill="#030F0F"/>
<rect x="38.1816" width="5.56122" height="5.45455" transform="rotate(90 38.1816 0)" fill="#030F0F"/>
<rect x="32.7271" width="5.56122" height="5.45455" transform="rotate(90 32.7271 0)" fill="#030F0F"/>
<rect x="43.6362" width="5.56122" height="5.45455" transform="rotate(90 43.6362 0)" fill="#030F0F"/>
<rect x="49.0908" y="5.56104" width="5.56122" height="5.45455" transform="rotate(90 49.0908 5.56104)" fill="#030F0F"/>
<rect x="49.0908" y="11.1226" width="5.56122" height="5.45455" transform="rotate(90 49.0908 11.1226)" fill="#030F0F"/>
<rect x="21.8184" y="16.6836" width="5.56122" height="5.45455" transform="rotate(90 21.8184 16.6836)" fill="#030F0F"/>
<rect x="27.2729" y="16.6836" width="5.56122" height="5.45455" transform="rotate(90 27.2729 16.6836)" fill="#030F0F"/>
<rect x="16.3638" y="38.9287" width="5.45455" height="5.56122" transform="rotate(-180 16.3638 38.9287)" fill="#FEFF00"/>
<rect x="27.2729" y="38.9287" width="5.45455" height="5.56122" transform="rotate(-180 27.2729 38.9287)" fill="#FEFF00"/>
<rect x="32.7271" y="38.9287" width="5.45455" height="5.56122" transform="rotate(-180 32.7271 38.9287)" fill="#FEFF00"/>
<rect x="43.6362" y="38.9287" width="5.45455" height="5.56122" transform="rotate(-180 43.6362 38.9287)" fill="#FEFF00"/>
<rect x="38.1816" y="38.9287" width="5.45455" height="5.56122" transform="rotate(-180 38.1816 38.9287)" fill="#FEFF00"/>
<rect x="21.8184" y="38.9287" width="5.45455" height="5.56122" transform="rotate(-180 21.8184 38.9287)" fill="#FEFF00"/>
<rect x="32.7271" y="27.8062" width="5.45455" height="5.56122" transform="rotate(-180 32.7271 27.8062)" fill="#FEFF00"/>
<rect x="21.8184" y="27.8062" width="5.45455" height="5.56122" transform="rotate(-180 21.8184 27.8062)" fill="#FEFF00"/>
<rect x="27.2729" y="27.8062" width="5.45455" height="5.56122" transform="rotate(-180 27.2729 27.8062)" fill="#FEFF00"/>
<rect x="43.6362" y="27.8062" width="5.45455" height="5.56122" transform="rotate(-180 43.6362 27.8062)" fill="#FEFF00"/>
<rect x="43.6362" y="55.6123" width="5.45455" height="5.56122" transform="rotate(-180 43.6362 55.6123)" fill="#FEFF00"/>
<rect x="27.2729" y="55.6123" width="5.45455" height="5.56122" transform="rotate(-180 27.2729 55.6123)" fill="#FEFF00"/>
<rect x="32.7271" y="50.0513" width="5.45455" height="5.56122" transform="rotate(-180 32.7271 50.0513)" fill="#FEFF00"/>
<rect x="32.7271" y="55.6123" width="5.45455" height="5.56122" transform="rotate(-180 32.7271 55.6123)" fill="#FEFF00"/>
<rect x="38.1816" y="55.6123" width="5.45455" height="5.56122" transform="rotate(-180 38.1816 55.6123)" fill="#FEFF00"/>
<rect x="21.8184" y="55.6123" width="5.45455" height="5.56122" transform="rotate(-180 21.8184 55.6123)" fill="#FEFF00"/>
<rect x="27.2729" y="50.0513" width="5.45455" height="5.56122" transform="rotate(-180 27.2729 50.0513)" fill="#FEFF00"/>
<rect x="16.3638" y="50.0513" width="5.45455" height="5.56122" transform="rotate(-180 16.3638 50.0513)" fill="#FEFF00"/>
<rect x="16.3638" y="33.3672" width="5.45455" height="5.56122" transform="rotate(-180 16.3638 33.3672)" fill="#FEFF00"/>
<rect x="38.1816" y="27.8062" width="5.45455" height="5.56122" transform="rotate(-180 38.1816 27.8062)" fill="#FEFF00"/>
<rect x="38.1816" y="50.0513" width="5.45455" height="5.56122" transform="rotate(-180 38.1816 50.0513)" fill="#FEFF00"/>
<rect x="21.8184" y="50.0513" width="5.45455" height="5.56122" transform="rotate(-180 21.8184 50.0513)" fill="#FEFF00"/>
<rect x="27.2729" y="33.3672" width="5.45455" height="5.56122" transform="rotate(-180 27.2729 33.3672)" fill="#FEFF00"/>
<rect x="32.7271" y="33.3672" width="5.45455" height="5.56122" transform="rotate(-180 32.7271 33.3672)" fill="#FEFF00"/>
<rect x="43.6362" y="33.3672" width="5.45455" height="5.56122" transform="rotate(-180 43.6362 33.3672)" fill="#FEFF00"/>
<rect x="38.1816" y="33.3672" width="5.45455" height="5.56122" transform="rotate(-180 38.1816 33.3672)" fill="#FEFF00"/>
<rect x="21.8184" y="33.3672" width="5.45455" height="5.56122" transform="rotate(-180 21.8184 33.3672)" fill="#FEFF00"/>
<rect x="49.0908" y="33.3672" width="5.45455" height="5.56122" transform="rotate(-180 49.0908 33.3672)" fill="#FEFF00"/>
<rect x="32.7271" y="16.6836" width="5.56122" height="5.45455" transform="rotate(90 32.7271 16.6836)" fill="#030F0F"/>
<rect x="16.3638" y="44.4897" width="5.45455" height="5.56122" transform="rotate(-180 16.3638 44.4897)" fill="#FEFF00"/>
<rect x="27.2729" y="44.4897" width="5.45455" height="5.56122" transform="rotate(-180 27.2729 44.4897)" fill="#FEFF00"/>
<rect x="32.7271" y="44.4897" width="5.45455" height="5.56122" transform="rotate(-180 32.7271 44.4897)" fill="#FEFF00"/>
<rect x="43.6362" y="44.4897" width="5.45455" height="5.56122" transform="rotate(-180 43.6362 44.4897)" fill="#FEFF00"/>
<rect x="38.1816" y="44.4897" width="5.45455" height="5.56122" transform="rotate(-180 38.1816 44.4897)" fill="#FEFF00"/>
<rect x="21.8184" y="44.4897" width="5.45455" height="5.56122" transform="rotate(-180 21.8184 44.4897)" fill="#FEFF00"/>
<rect x="16.3638" y="50.0513" width="5.45455" height="5.56122" transform="rotate(-180 16.3638 50.0513)" fill="#FEFF00"/>
<rect x="27.2729" y="50.0513" width="5.45455" height="5.56122" transform="rotate(-180 27.2729 50.0513)" fill="#FEFF00"/>
<rect x="32.7271" y="50.0513" width="5.45455" height="5.56122" transform="rotate(-180 32.7271 50.0513)" fill="#FEFF00"/>
<rect x="43.6362" y="50.0513" width="5.45455" height="5.56122" transform="rotate(-180 43.6362 50.0513)" fill="#FEFF00"/>
<rect x="38.1816" y="50.0513" width="5.45455" height="5.56122" transform="rotate(-180 38.1816 50.0513)" fill="#FEFF00"/>
<rect x="21.8184" y="50.0513" width="5.45455" height="5.56122" transform="rotate(-180 21.8184 50.0513)" fill="#FEFF00"/>
<rect x="43.6362" y="50.0513" width="5.45455" height="5.56122" transform="rotate(-180 43.6362 50.0513)" fill="#FEFF00"/>
<rect x="49.0908" y="50.0513" width="5.45455" height="5.56122" transform="rotate(-180 49.0908 50.0513)" fill="#FEFF00"/>
<rect x="49.0908" y="44.4897" width="5.45455" height="5.56122" transform="rotate(-180 49.0908 44.4897)" fill="#FEFF00"/>
<rect x="49.0908" y="50.0513" width="5.45455" height="5.56122" transform="rotate(-180 49.0908 50.0513)" fill="#FEFF00"/>
<rect x="54.5454" y="38.9287" width="5.45455" height="5.56122" transform="rotate(-180 54.5454 38.9287)" fill="#FEFF00"/>
<rect x="54.5454" y="33.3672" width="5.45455" height="5.56122" transform="rotate(-180 54.5454 33.3672)" fill="#FEFF00"/>
<rect x="54.5454" y="44.4897" width="5.45455" height="5.56122" transform="rotate(-180 54.5454 44.4897)" fill="#FEFF00"/>
<rect x="54.5454" y="50.0513" width="5.45455" height="5.56122" transform="rotate(-180 54.5454 50.0513)" fill="#FEFF00"/>
<rect x="38.1816" y="16.6836" width="5.56122" height="5.45455" transform="rotate(90 38.1816 16.6836)" fill="#030F0F"/>
<rect x="60" y="44.4897" width="5.45455" height="5.56122" transform="rotate(-180 60 44.4897)" fill="#030F0F"/>
<rect x="60" y="38.9287" width="5.45455" height="5.56122" transform="rotate(-180 60 38.9287)" fill="#030F0F"/>
<rect x="54.5454" y="27.8062" width="5.45455" height="5.56122" transform="rotate(-180 54.5454 27.8062)" fill="#030F0F"/>
<rect x="49.0908" y="27.8062" width="5.45455" height="5.56122" transform="rotate(-180 49.0908 27.8062)" fill="#FEFF00"/>
<rect x="60" y="33.3672" width="5.45455" height="5.56122" transform="rotate(-180 60 33.3672)" fill="#030F0F"/>
<rect x="43.6362" y="22.2451" width="5.45455" height="5.56122" transform="rotate(-180 43.6362 22.2451)" fill="#030F0F"/>
<rect x="49.0908" y="22.2451" width="5.45455" height="5.56122" transform="rotate(-180 49.0908 22.2451)" fill="#030F0F"/>
<rect x="49.0908" y="38.9287" width="5.45455" height="5.56122" transform="rotate(-180 49.0908 38.9287)" fill="#FEFF00"/>
<rect x="49.0908" y="38.9287" width="5.45455" height="5.56122" transform="rotate(-180 49.0908 38.9287)" fill="#030F0F"/>
<rect x="32.7271" y="33.3672" width="5.45455" height="5.56122" transform="rotate(-180 32.7271 33.3672)" fill="#030F0F"/>
<rect x="21.8184" y="33.3672" width="5.45455" height="5.56122" transform="rotate(-180 21.8184 33.3672)" fill="#030F0F"/>
<rect x="32.7271" y="27.8062" width="5.45455" height="5.56122" transform="rotate(-180 32.7271 27.8062)" fill="#030F0F"/>
<rect x="21.8184" y="27.8062" width="5.45455" height="5.56122" transform="rotate(-180 21.8184 27.8062)" fill="#030F0F"/>
<rect x="16.3638" y="27.8062" width="5.45455" height="5.56122" transform="rotate(-180 16.3638 27.8062)" fill="#030F0F"/>
<rect x="32.7271" y="38.9287" width="5.45455" height="5.56122" transform="rotate(-180 32.7271 38.9287)" fill="#030F0F"/>
<rect x="21.8184" y="38.9287" width="5.45455" height="5.56122" transform="rotate(-180 21.8184 38.9287)" fill="#030F0F"/>
<rect x="32.7271" y="44.4897" width="5.45455" height="5.56122" transform="rotate(-180 32.7271 44.4897)" fill="#030F0F"/>
<rect x="21.8184" y="44.4897" width="5.45455" height="5.56122" transform="rotate(-180 21.8184 44.4897)" fill="#030F0F"/>
<rect x="32.7271" y="44.4897" width="5.45455" height="5.56122" transform="rotate(-180 32.7271 44.4897)" fill="#030F0F"/>
<rect x="21.8184" y="44.4897" width="5.45455" height="5.56122" transform="rotate(-180 21.8184 44.4897)" fill="#030F0F"/>
<rect x="32.7271" y="50.0513" width="5.45455" height="5.56122" transform="rotate(-180 32.7271 50.0513)" fill="#030F0F"/>
<rect x="21.8184" y="50.0513" width="5.45455" height="5.56122" transform="rotate(-180 21.8184 50.0513)" fill="#030F0F"/>
<rect x="21.8184" y="50.0513" width="5.56122" height="5.45455" transform="rotate(90 21.8184 50.0513)" fill="#030F0F"/>
<rect x="27.2729" y="50.0513" width="5.56122" height="5.45455" transform="rotate(90 27.2729 50.0513)" fill="#030F0F"/>
<rect x="32.7271" y="50.0513" width="5.56122" height="5.45455" transform="rotate(90 32.7271 50.0513)" fill="#030F0F"/>
<rect x="38.1816" y="50.0513" width="5.56122" height="5.45455" transform="rotate(90 38.1816 50.0513)" fill="#030F0F"/>
<rect x="43.6362" y="50.0513" width="5.56122" height="5.45455" transform="rotate(90 43.6362 50.0513)" fill="#030F0F"/>
<rect x="54.5454" y="50.0513" width="5.45455" height="5.56122" transform="rotate(-180 54.5454 50.0513)" fill="#030F0F"/>
<rect x="49.0908" y="55.6123" width="5.45455" height="5.56122" transform="rotate(-180 49.0908 55.6123)" fill="#030F0F"/>
<rect x="10.9087" y="38.9287" width="5.45455" height="5.56122" transform="rotate(-180 10.9087 38.9287)" fill="#030F0F"/>
<rect x="16.3638" y="38.9287" width="5.45455" height="5.56122" transform="rotate(-180 16.3638 38.9287)" fill="#FEFF00"/>
<rect x="16.3638" y="33.3672" width="5.45455" height="5.56122" transform="rotate(-180 16.3638 33.3672)" fill="#FEFF00"/>
<rect x="16.3638" y="50.0513" width="5.45455" height="5.56122" transform="rotate(-180 16.3638 50.0513)" fill="#FEFF00"/>
<rect x="10.9087" y="44.4897" width="5.45455" height="5.56122" transform="rotate(-180 10.9087 44.4897)" fill="#030F0F"/>
<rect x="5.45459" y="38.9287" width="5.45455" height="5.56122" transform="rotate(-180 5.45459 38.9287)" fill="#030F0F"/>
<rect x="16.3638" y="44.4897" width="5.45455" height="5.56122" transform="rotate(-180 16.3638 44.4897)" fill="#FEFF00"/>
<rect x="16.3638" y="50.0513" width="5.45455" height="5.56122" transform="rotate(-180 16.3638 50.0513)" fill="#FEFF00"/>
<rect x="16.3638" y="50.0513" width="5.45455" height="5.56122" transform="rotate(-180 16.3638 50.0513)" fill="#030F0F"/>
<rect x="10.9087" y="33.3672" width="5.45455" height="5.56122" transform="rotate(-180 10.9087 33.3672)" fill="#030F0F"/>
<rect x="10.9087" y="11.1226" width="5.56122" height="5.45455" transform="rotate(90 10.9087 11.1226)" fill="#030F0F"/>
<rect x="10.9087" y="5.56104" width="5.56122" height="5.45455" transform="rotate(90 10.9087 5.56104)" fill="#030F0F"/>
<rect x="16.3638" width="5.56122" height="5.45455" transform="rotate(90 16.3638 0)" fill="#030F0F"/>
<mask id="path-122-outside-1_297_5" maskUnits="userSpaceOnUse" x="71.2856" y="5.06689" width="178" height="29" fill="black">
<rect fill="white" x="71.2856" y="5.06689" width="178" height="29"/>
<path d="M75.0856 30.8169V8.06689H94.5856V11.3169H97.8356V17.8169H94.5856V21.0669H97.8356V27.5669H94.5856V30.8169H75.0856ZM81.5856 17.8169H91.3356V11.3169H81.5856V17.8169ZM81.5856 27.5669H91.3356V21.0669H81.5856V27.5669ZM99.7856 30.8169V8.06689H122.536V11.3169H106.286V17.8169H119.286V21.0669H106.286V27.5669H122.536V30.8169H99.7856ZM124.486 30.8169V8.06689H147.236V11.3169H130.986V17.8169H143.986V21.0669H130.986V27.5669H147.236V30.8169H124.486ZM149.186 30.8169V8.06689H155.686V17.8169H165.436V8.06689H171.936V30.8169H165.436V21.0669H155.686V30.8169H149.186ZM177.136 30.8169V27.5669H183.636V11.3169H177.136V8.06689H196.636V11.3169H190.136V27.5669H196.636V30.8169H177.136ZM208.336 30.8169V27.5669H205.086V24.3169H201.836V21.0669H198.586V8.06689H205.086V17.8169H208.336V21.0669H211.586V17.8169H214.836V8.06689H221.336V21.0669H218.086V24.3169H214.836V27.5669H211.586V30.8169H208.336ZM223.286 30.8169V8.06689H246.036V11.3169H229.786V17.8169H242.786V21.0669H229.786V27.5669H246.036V30.8169H223.286Z"/>
</mask>
<path d="M75.0856 30.8169V8.06689H94.5856V11.3169H97.8356V17.8169H94.5856V21.0669H97.8356V27.5669H94.5856V30.8169H75.0856ZM81.5856 17.8169H91.3356V11.3169H81.5856V17.8169ZM81.5856 27.5669H91.3356V21.0669H81.5856V27.5669ZM99.7856 30.8169V8.06689H122.536V11.3169H106.286V17.8169H119.286V21.0669H106.286V27.5669H122.536V30.8169H99.7856ZM124.486 30.8169V8.06689H147.236V11.3169H130.986V17.8169H143.986V21.0669H130.986V27.5669H147.236V30.8169H124.486ZM149.186 30.8169V8.06689H155.686V17.8169H165.436V8.06689H171.936V30.8169H165.436V21.0669H155.686V30.8169H149.186ZM177.136 30.8169V27.5669H183.636V11.3169H177.136V8.06689H196.636V11.3169H190.136V27.5669H196.636V30.8169H177.136ZM208.336 30.8169V27.5669H205.086V24.3169H201.836V21.0669H198.586V8.06689H205.086V17.8169H208.336V21.0669H211.586V17.8169H214.836V8.06689H221.336V21.0669H218.086V24.3169H214.836V27.5669H211.586V30.8169H208.336ZM223.286 30.8169V8.06689H246.036V11.3169H229.786V17.8169H242.786V21.0669H229.786V27.5669H246.036V30.8169H223.286Z" fill="#FEFF00"/>
<path d="M75.0856 30.8169H72.0856V33.8169H75.0856V30.8169ZM75.0856 8.06689V5.06689H72.0856V8.06689H75.0856ZM94.5856 8.06689H97.5856V5.06689H94.5856V8.06689ZM94.5856 11.3169H91.5856V14.3169H94.5856V11.3169ZM97.8356 11.3169H100.836V8.31689H97.8356V11.3169ZM97.8356 17.8169V20.8169H100.836V17.8169H97.8356ZM94.5856 17.8169V14.8169H91.5856V17.8169H94.5856ZM94.5856 21.0669H91.5856V24.0669H94.5856V21.0669ZM97.8356 21.0669H100.836V18.0669H97.8356V21.0669ZM97.8356 27.5669V30.5669H100.836V27.5669H97.8356ZM94.5856 27.5669V24.5669H91.5856V27.5669H94.5856ZM94.5856 30.8169V33.8169H97.5856V30.8169H94.5856ZM81.5856 17.8169H78.5856V20.8169H81.5856V17.8169ZM91.3356 17.8169V20.8169H94.3356V17.8169H91.3356ZM91.3356 11.3169H94.3356V8.31689H91.3356V11.3169ZM81.5856 11.3169V8.31689H78.5856V11.3169H81.5856ZM81.5856 27.5669H78.5856V30.5669H81.5856V27.5669ZM91.3356 27.5669V30.5669H94.3356V27.5669H91.3356ZM91.3356 21.0669H94.3356V18.0669H91.3356V21.0669ZM81.5856 21.0669V18.0669H78.5856V21.0669H81.5856ZM75.0856 30.8169H78.0856V8.06689H75.0856H72.0856V30.8169H75.0856ZM75.0856 8.06689V11.0669H94.5856V8.06689V5.06689H75.0856V8.06689ZM94.5856 8.06689H91.5856V11.3169H94.5856H97.5856V8.06689H94.5856ZM94.5856 11.3169V14.3169H97.8356V11.3169V8.31689H94.5856V11.3169ZM97.8356 11.3169H94.8356V17.8169H97.8356H100.836V11.3169H97.8356ZM97.8356 17.8169V14.8169H94.5856V17.8169V20.8169H97.8356V17.8169ZM94.5856 17.8169H91.5856V21.0669H94.5856H97.5856V17.8169H94.5856ZM94.5856 21.0669V24.0669H97.8356V21.0669V18.0669H94.5856V21.0669ZM97.8356 21.0669H94.8356V27.5669H97.8356H100.836V21.0669H97.8356ZM97.8356 27.5669V24.5669H94.5856V27.5669V30.5669H97.8356V27.5669ZM94.5856 27.5669H91.5856V30.8169H94.5856H97.5856V27.5669H94.5856ZM94.5856 30.8169V27.8169H75.0856V30.8169V33.8169H94.5856V30.8169ZM81.5856 17.8169V20.8169H91.3356V17.8169V14.8169H81.5856V17.8169ZM91.3356 17.8169H94.3356V11.3169H91.3356H88.3356V17.8169H91.3356ZM91.3356 11.3169V8.31689H81.5856V11.3169V14.3169H91.3356V11.3169ZM81.5856 11.3169H78.5856V17.8169H81.5856H84.5856V11.3169H81.5856ZM81.5856 27.5669V30.5669H91.3356V27.5669V24.5669H81.5856V27.5669ZM91.3356 27.5669H94.3356V21.0669H91.3356H88.3356V27.5669H91.3356ZM91.3356 21.0669V18.0669H81.5856V21.0669V24.0669H91.3356V21.0669ZM81.5856 21.0669H78.5856V27.5669H81.5856H84.5856V21.0669H81.5856ZM99.7856 30.8169H96.7856V33.8169H99.7856V30.8169ZM99.7856 8.06689V5.06689H96.7856V8.06689H99.7856ZM122.536 8.06689H125.536V5.06689H122.536V8.06689ZM122.536 11.3169V14.3169H125.536V11.3169H122.536ZM106.286 11.3169V8.31689H103.286V11.3169H106.286ZM106.286 17.8169H103.286V20.8169H106.286V17.8169ZM119.286 17.8169H122.286V14.8169H119.286V17.8169ZM119.286 21.0669V24.0669H122.286V21.0669H119.286ZM106.286 21.0669V18.0669H103.286V21.0669H106.286ZM106.286 27.5669H103.286V30.5669H106.286V27.5669ZM122.536 27.5669H125.536V24.5669H122.536V27.5669ZM122.536 30.8169V33.8169H125.536V30.8169H122.536ZM99.7856 30.8169H102.786V8.06689H99.7856H96.7856V30.8169H99.7856ZM99.7856 8.06689V11.0669H122.536V8.06689V5.06689H99.7856V8.06689ZM122.536 8.06689H119.536V11.3169H122.536H125.536V8.06689H122.536ZM122.536 11.3169V8.31689H106.286V11.3169V14.3169H122.536V11.3169ZM106.286 11.3169H103.286V17.8169H106.286H109.286V11.3169H106.286ZM106.286 17.8169V20.8169H119.286V17.8169V14.8169H106.286V17.8169ZM119.286 17.8169H116.286V21.0669H119.286H122.286V17.8169H119.286ZM119.286 21.0669V18.0669H106.286V21.0669V24.0669H119.286V21.0669ZM106.286 21.0669H103.286V27.5669H106.286H109.286V21.0669H106.286ZM106.286 27.5669V30.5669H122.536V27.5669V24.5669H106.286V27.5669ZM122.536 27.5669H119.536V30.8169H122.536H125.536V27.5669H122.536ZM122.536 30.8169V27.8169H99.7856V30.8169V33.8169H122.536V30.8169ZM124.486 30.8169H121.486V33.8169H124.486V30.8169ZM124.486 8.06689V5.06689H121.486V8.06689H124.486ZM147.236 8.06689H150.236V5.06689H147.236V8.06689ZM147.236 11.3169V14.3169H150.236V11.3169H147.236ZM130.986 11.3169V8.31689H127.986V11.3169H130.986ZM130.986 17.8169H127.986V20.8169H130.986V17.8169ZM143.986 17.8169H146.986V14.8169H143.986V17.8169ZM143.986 21.0669V24.0669H146.986V21.0669H143.986ZM130.986 21.0669V18.0669H127.986V21.0669H130.986ZM130.986 27.5669H127.986V30.5669H130.986V27.5669ZM147.236 27.5669H150.236V24.5669H147.236V27.5669ZM147.236 30.8169V33.8169H150.236V30.8169H147.236ZM124.486 30.8169H127.486V8.06689H124.486H121.486V30.8169H124.486ZM124.486 8.06689V11.0669H147.236V8.06689V5.06689H124.486V8.06689ZM147.236 8.06689H144.236V11.3169H147.236H150.236V8.06689H147.236ZM147.236 11.3169V8.31689H130.986V11.3169V14.3169H147.236V11.3169ZM130.986 11.3169H127.986V17.8169H130.986H133.986V11.3169H130.986ZM130.986 17.8169V20.8169H143.986V17.8169V14.8169H130.986V17.8169ZM143.986 17.8169H140.986V21.0669H143.986H146.986V17.8169H143.986ZM143.986 21.0669V18.0669H130.986V21.0669V24.0669H143.986V21.0669ZM130.986 21.0669H127.986V27.5669H130.986H133.986V21.0669H130.986ZM130.986 27.5669V30.5669H147.236V27.5669V24.5669H130.986V27.5669ZM147.236 27.5669H144.236V30.8169H147.236H150.236V27.5669H147.236ZM147.236 30.8169V27.8169H124.486V30.8169V33.8169H147.236V30.8169ZM149.186 30.8169H146.186V33.8169H149.186V30.8169ZM149.186 8.06689V5.06689H146.186V8.06689H149.186ZM155.686 8.06689H158.686V5.06689H155.686V8.06689ZM155.686 17.8169H152.686V20.8169H155.686V17.8169ZM165.436 17.8169V20.8169H168.436V17.8169H165.436ZM165.436 8.06689V5.06689H162.436V8.06689H165.436ZM171.936 8.06689H174.936V5.06689H171.936V8.06689ZM171.936 30.8169V33.8169H174.936V30.8169H171.936ZM165.436 30.8169H162.436V33.8169H165.436V30.8169ZM165.436 21.0669H168.436V18.0669H165.436V21.0669ZM155.686 21.0669V18.0669H152.686V21.0669H155.686ZM155.686 30.8169V33.8169H158.686V30.8169H155.686ZM149.186 30.8169H152.186V8.06689H149.186H146.186V30.8169H149.186ZM149.186 8.06689V11.0669H155.686V8.06689V5.06689H149.186V8.06689ZM155.686 8.06689H152.686V17.8169H155.686H158.686V8.06689H155.686ZM155.686 17.8169V20.8169H165.436V17.8169V14.8169H155.686V17.8169ZM165.436 17.8169H168.436V8.06689H165.436H162.436V17.8169H165.436ZM165.436 8.06689V11.0669H171.936V8.06689V5.06689H165.436V8.06689ZM171.936 8.06689H168.936V30.8169H171.936H174.936V8.06689H171.936ZM171.936 30.8169V27.8169H165.436V30.8169V33.8169H171.936V30.8169ZM165.436 30.8169H168.436V21.0669H165.436H162.436V30.8169H165.436ZM165.436 21.0669V18.0669H155.686V21.0669V24.0669H165.436V21.0669ZM155.686 21.0669H152.686V30.8169H155.686H158.686V21.0669H155.686ZM155.686 30.8169V27.8169H149.186V30.8169V33.8169H155.686V30.8169ZM177.136 30.8169H174.136V33.8169H177.136V30.8169ZM177.136 27.5669V24.5669H174.136V27.5669H177.136ZM183.636 27.5669V30.5669H186.636V27.5669H183.636ZM183.636 11.3169H186.636V8.31689H183.636V11.3169ZM177.136 11.3169H174.136V14.3169H177.136V11.3169ZM177.136 8.06689V5.06689H174.136V8.06689H177.136ZM196.636 8.06689H199.636V5.06689H196.636V8.06689ZM196.636 11.3169V14.3169H199.636V11.3169H196.636ZM190.136 11.3169V8.31689H187.136V11.3169H190.136ZM190.136 27.5669H187.136V30.5669H190.136V27.5669ZM196.636 27.5669H199.636V24.5669H196.636V27.5669ZM196.636 30.8169V33.8169H199.636V30.8169H196.636ZM177.136 30.8169H180.136V27.5669H177.136H174.136V30.8169H177.136ZM177.136 27.5669V30.5669H183.636V27.5669V24.5669H177.136V27.5669ZM183.636 27.5669H186.636V11.3169H183.636H180.636V27.5669H183.636ZM183.636 11.3169V8.31689H177.136V11.3169V14.3169H183.636V11.3169ZM177.136 11.3169H180.136V8.06689H177.136H174.136V11.3169H177.136ZM177.136 8.06689V11.0669H196.636V8.06689V5.06689H177.136V8.06689ZM196.636 8.06689H193.636V11.3169H196.636H199.636V8.06689H196.636ZM196.636 11.3169V8.31689H190.136V11.3169V14.3169H196.636V11.3169ZM190.136 11.3169H187.136V27.5669H190.136H193.136V11.3169H190.136ZM190.136 27.5669V30.5669H196.636V27.5669V24.5669H190.136V27.5669ZM196.636 27.5669H193.636V30.8169H196.636H199.636V27.5669H196.636ZM196.636 30.8169V27.8169H177.136V30.8169V33.8169H196.636V30.8169ZM208.336 30.8169H205.336V33.8169H208.336V30.8169ZM208.336 27.5669H211.336V24.5669H208.336V27.5669ZM205.086 27.5669H202.086V30.5669H205.086V27.5669ZM205.086 24.3169H208.086V21.3169H205.086V24.3169ZM201.836 24.3169H198.836V27.3169H201.836V24.3169ZM201.836 21.0669H204.836V18.0669H201.836V21.0669ZM198.586 21.0669H195.586V24.0669H198.586V21.0669ZM198.586 8.06689V5.06689H195.586V8.06689H198.586ZM205.086 8.06689H208.086V5.06689H205.086V8.06689ZM205.086 17.8169H202.086V20.8169H205.086V17.8169ZM208.336 17.8169H211.336V14.8169H208.336V17.8169ZM208.336 21.0669H205.336V24.0669H208.336V21.0669ZM211.586 21.0669V24.0669H214.586V21.0669H211.586ZM211.586 17.8169V14.8169H208.586V17.8169H211.586ZM214.836 17.8169V20.8169H217.836V17.8169H214.836ZM214.836 8.06689V5.06689H211.836V8.06689H214.836ZM221.336 8.06689H224.336V5.06689H221.336V8.06689ZM221.336 21.0669V24.0669H224.336V21.0669H221.336ZM218.086 21.0669V18.0669H215.086V21.0669H218.086ZM218.086 24.3169V27.3169H221.086V24.3169H218.086ZM214.836 24.3169V21.3169H211.836V24.3169H214.836ZM214.836 27.5669V30.5669H217.836V27.5669H214.836ZM211.586 27.5669V24.5669H208.586V27.5669H211.586ZM211.586 30.8169V33.8169H214.586V30.8169H211.586ZM208.336 30.8169H211.336V27.5669H208.336H205.336V30.8169H208.336ZM208.336 27.5669V24.5669H205.086V27.5669V30.5669H208.336V27.5669ZM205.086 27.5669H208.086V24.3169H205.086H202.086V27.5669H205.086ZM205.086 24.3169V21.3169H201.836V24.3169V27.3169H205.086V24.3169ZM201.836 24.3169H204.836V21.0669H201.836H198.836V24.3169H201.836ZM201.836 21.0669V18.0669H198.586V21.0669V24.0669H201.836V21.0669ZM198.586 21.0669H201.586V8.06689H198.586H195.586V21.0669H198.586ZM198.586 8.06689V11.0669H205.086V8.06689V5.06689H198.586V8.06689ZM205.086 8.06689H202.086V17.8169H205.086H208.086V8.06689H205.086ZM205.086 17.8169V20.8169H208.336V17.8169V14.8169H205.086V17.8169ZM208.336 17.8169H205.336V21.0669H208.336H211.336V17.8169H208.336ZM208.336 21.0669V24.0669H211.586V21.0669V18.0669H208.336V21.0669ZM211.586 21.0669H214.586V17.8169H211.586H208.586V21.0669H211.586ZM211.586 17.8169V20.8169H214.836V17.8169V14.8169H211.586V17.8169ZM214.836 17.8169H217.836V8.06689H214.836H211.836V17.8169H214.836ZM214.836 8.06689V11.0669H221.336V8.06689V5.06689H214.836V8.06689ZM221.336 8.06689H218.336V21.0669H221.336H224.336V8.06689H221.336ZM221.336 21.0669V18.0669H218.086V21.0669V24.0669H221.336V21.0669ZM218.086 21.0669H215.086V24.3169H218.086H221.086V21.0669H218.086ZM218.086 24.3169V21.3169H214.836V24.3169V27.3169H218.086V24.3169ZM214.836 24.3169H211.836V27.5669H214.836H217.836V24.3169H214.836ZM214.836 27.5669V24.5669H211.586V27.5669V30.5669H214.836V27.5669ZM211.586 27.5669H208.586V30.8169H211.586H214.586V27.5669H211.586ZM211.586 30.8169V27.8169H208.336V30.8169V33.8169H211.586V30.8169ZM223.286 30.8169H220.286V33.8169H223.286V30.8169ZM223.286 8.06689V5.06689H220.286V8.06689H223.286ZM246.036 8.06689H249.036V5.06689H246.036V8.06689ZM246.036 11.3169V14.3169H249.036V11.3169H246.036ZM229.786 11.3169V8.31689H226.786V11.3169H229.786ZM229.786 17.8169H226.786V20.8169H229.786V17.8169ZM242.786 17.8169H245.786V14.8169H242.786V17.8169ZM242.786 21.0669V24.0669H245.786V21.0669H242.786ZM229.786 21.0669V18.0669H226.786V21.0669H229.786ZM229.786 27.5669H226.786V30.5669H229.786V27.5669ZM246.036 27.5669H249.036V24.5669H246.036V27.5669ZM246.036 30.8169V33.8169H249.036V30.8169H246.036ZM223.286 30.8169H226.286V8.06689H223.286H220.286V30.8169H223.286ZM223.286 8.06689V11.0669H246.036V8.06689V5.06689H223.286V8.06689ZM246.036 8.06689H243.036V11.3169H246.036H249.036V8.06689H246.036ZM246.036 11.3169V8.31689H229.786V11.3169V14.3169H246.036V11.3169ZM229.786 11.3169H226.786V17.8169H229.786H232.786V11.3169H229.786ZM229.786 17.8169V20.8169H242.786V17.8169V14.8169H229.786V17.8169ZM242.786 17.8169H239.786V21.0669H242.786H245.786V17.8169H242.786ZM242.786 21.0669V18.0669H229.786V21.0669V24.0669H242.786V21.0669ZM229.786 21.0669H226.786V27.5669H229.786H232.786V21.0669H229.786ZM229.786 27.5669V30.5669H246.036V27.5669V24.5669H229.786V27.5669ZM246.036 27.5669H243.036V30.8169H246.036H249.036V27.5669H246.036ZM246.036 30.8169V27.8169H223.286V30.8169V33.8169H246.036V30.8169Z" fill="black" mask="url(#path-122-outside-1_297_5)"/>
<mask id="path-124-outside-2_297_5" maskUnits="userSpaceOnUse" x="117.286" y="37.0669" width="131" height="17" fill="black">
<rect fill="white" x="117.286" y="37.0669" width="131" height="17"/>
<path d="M119.606 51.3169V39.0669H130.106V40.8169H131.856V44.3169H130.106V46.0669H131.856V49.5669H130.106V51.3169H119.606ZM123.106 44.3169H128.356V40.8169H123.106V44.3169ZM123.106 49.5669H128.356V46.0669H123.106V49.5669ZM138.156 51.3169V46.0669H136.406V44.3169H134.656V39.0669H138.156V44.3169H141.656V39.0669H145.156V44.3169H143.406V46.0669H141.656V51.3169H138.156ZM156.706 51.3169V39.0669H167.206V40.8169H168.956V44.3169H167.206V46.0669H168.956V49.5669H167.206V51.3169H156.706ZM160.206 44.3169H165.456V40.8169H160.206V44.3169ZM160.206 49.5669H165.456V46.0669H160.206V49.5669ZM170.076 51.3169V49.5669H173.576V40.8169H170.076V39.0669H180.576V40.8169H177.076V49.5669H180.576V51.3169H170.076ZM185.336 51.3169V40.8169H181.836V39.0669H192.336V40.8169H188.836V51.3169H185.336ZM195.136 51.3169V49.5669H193.386V39.0669H196.886V46.0669H198.636V39.0669H200.386V46.0669H202.136V39.0669H205.636V49.5669H203.886V51.3169H202.136V49.5669H200.386V47.8169H198.636V49.5669H196.886V51.3169H195.136ZM208.436 51.3169V49.5669H206.686V40.8169H208.436V39.0669H217.186V40.8169H218.936V49.5669H217.186V51.3169H208.436ZM210.186 49.5669H215.436V40.8169H210.186V49.5669ZM219.986 51.3169V39.0669H230.486V40.8169H232.236V46.0669H228.736V47.8169H230.486V49.5669H232.236V51.3169H226.986V49.5669H225.236V47.8169H223.486V51.3169H219.986ZM223.486 46.0669H226.986V44.3169H228.736V40.8169H223.486V46.0669ZM233.286 51.3169V47.8169H235.036V46.0669H236.786V44.3169H235.036V42.5669H233.286V39.0669H236.786V42.5669H238.536V44.3169H240.286V42.5669H242.036V39.0669H245.536V42.5669H243.786V44.3169H242.036V46.0669H243.786V47.8169H245.536V51.3169H242.036V47.8169H240.286V46.0669H238.536V47.8169H236.786V51.3169H233.286Z"/>
</mask>
<path d="M119.606 51.3169V39.0669H130.106V40.8169H131.856V44.3169H130.106V46.0669H131.856V49.5669H130.106V51.3169H119.606ZM123.106 44.3169H128.356V40.8169H123.106V44.3169ZM123.106 49.5669H128.356V46.0669H123.106V49.5669ZM138.156 51.3169V46.0669H136.406V44.3169H134.656V39.0669H138.156V44.3169H141.656V39.0669H145.156V44.3169H143.406V46.0669H141.656V51.3169H138.156ZM156.706 51.3169V39.0669H167.206V40.8169H168.956V44.3169H167.206V46.0669H168.956V49.5669H167.206V51.3169H156.706ZM160.206 44.3169H165.456V40.8169H160.206V44.3169ZM160.206 49.5669H165.456V46.0669H160.206V49.5669ZM170.076 51.3169V49.5669H173.576V40.8169H170.076V39.0669H180.576V40.8169H177.076V49.5669H180.576V51.3169H170.076ZM185.336 51.3169V40.8169H181.836V39.0669H192.336V40.8169H188.836V51.3169H185.336ZM195.136 51.3169V49.5669H193.386V39.0669H196.886V46.0669H198.636V39.0669H200.386V46.0669H202.136V39.0669H205.636V49.5669H203.886V51.3169H202.136V49.5669H200.386V47.8169H198.636V49.5669H196.886V51.3169H195.136ZM208.436 51.3169V49.5669H206.686V40.8169H208.436V39.0669H217.186V40.8169H218.936V49.5669H217.186V51.3169H208.436ZM210.186 49.5669H215.436V40.8169H210.186V49.5669ZM219.986 51.3169V39.0669H230.486V40.8169H232.236V46.0669H228.736V47.8169H230.486V49.5669H232.236V51.3169H226.986V49.5669H225.236V47.8169H223.486V51.3169H219.986ZM223.486 46.0669H226.986V44.3169H228.736V40.8169H223.486V46.0669ZM233.286 51.3169V47.8169H235.036V46.0669H236.786V44.3169H235.036V42.5669H233.286V39.0669H236.786V42.5669H238.536V44.3169H240.286V42.5669H242.036V39.0669H245.536V42.5669H243.786V44.3169H242.036V46.0669H243.786V47.8169H245.536V51.3169H242.036V47.8169H240.286V46.0669H238.536V47.8169H236.786V51.3169H233.286Z" fill="#FEFF00"/>
<path d="M119.606 51.3169H117.606V53.3169H119.606V51.3169ZM119.606 39.0669V37.0669H117.606V39.0669H119.606ZM130.106 39.0669H132.106V37.0669H130.106V39.0669ZM130.106 40.8169H128.106V42.8169H130.106V40.8169ZM131.856 40.8169H133.856V38.8169H131.856V40.8169ZM131.856 44.3169V46.3169H133.856V44.3169H131.856ZM130.106 44.3169V42.3169H128.106V44.3169H130.106ZM130.106 46.0669H128.106V48.0669H130.106V46.0669ZM131.856 46.0669H133.856V44.0669H131.856V46.0669ZM131.856 49.5669V51.5669H133.856V49.5669H131.856ZM130.106 49.5669V47.5669H128.106V49.5669H130.106ZM130.106 51.3169V53.3169H132.106V51.3169H130.106ZM123.106 44.3169H121.106V46.3169H123.106V44.3169ZM128.356 44.3169V46.3169H130.356V44.3169H128.356ZM128.356 40.8169H130.356V38.8169H128.356V40.8169ZM123.106 40.8169V38.8169H121.106V40.8169H123.106ZM123.106 49.5669H121.106V51.5669H123.106V49.5669ZM128.356 49.5669V51.5669H130.356V49.5669H128.356ZM128.356 46.0669H130.356V44.0669H128.356V46.0669ZM123.106 46.0669V44.0669H121.106V46.0669H123.106ZM119.606 51.3169H121.606V39.0669H119.606H117.606V51.3169H119.606ZM119.606 39.0669V41.0669H130.106V39.0669V37.0669H119.606V39.0669ZM130.106 39.0669H128.106V40.8169H130.106H132.106V39.0669H130.106ZM130.106 40.8169V42.8169H131.856V40.8169V38.8169H130.106V40.8169ZM131.856 40.8169H129.856V44.3169H131.856H133.856V40.8169H131.856ZM131.856 44.3169V42.3169H130.106V44.3169V46.3169H131.856V44.3169ZM130.106 44.3169H128.106V46.0669H130.106H132.106V44.3169H130.106ZM130.106 46.0669V48.0669H131.856V46.0669V44.0669H130.106V46.0669ZM131.856 46.0669H129.856V49.5669H131.856H133.856V46.0669H131.856ZM131.856 49.5669V47.5669H130.106V49.5669V51.5669H131.856V49.5669ZM130.106 49.5669H128.106V51.3169H130.106H132.106V49.5669H130.106ZM130.106 51.3169V49.3169H119.606V51.3169V53.3169H130.106V51.3169ZM123.106 44.3169V46.3169H128.356V44.3169V42.3169H123.106V44.3169ZM128.356 44.3169H130.356V40.8169H128.356H126.356V44.3169H128.356ZM128.356 40.8169V38.8169H123.106V40.8169V42.8169H128.356V40.8169ZM123.106 40.8169H121.106V44.3169H123.106H125.106V40.8169H123.106ZM123.106 49.5669V51.5669H128.356V49.5669V47.5669H123.106V49.5669ZM128.356 49.5669H130.356V46.0669H128.356H126.356V49.5669H128.356ZM128.356 46.0669V44.0669H123.106V46.0669V48.0669H128.356V46.0669ZM123.106 46.0669H121.106V49.5669H123.106H125.106V46.0669H123.106ZM138.156 51.3169H136.156V53.3169H138.156V51.3169ZM138.156 46.0669H140.156V44.0669H138.156V46.0669ZM136.406 46.0669H134.406V48.0669H136.406V46.0669ZM136.406 44.3169H138.406V42.3169H136.406V44.3169ZM134.656 44.3169H132.656V46.3169H134.656V44.3169ZM134.656 39.0669V37.0669H132.656V39.0669H134.656ZM138.156 39.0669H140.156V37.0669H138.156V39.0669ZM138.156 44.3169H136.156V46.3169H138.156V44.3169ZM141.656 44.3169V46.3169H143.656V44.3169H141.656ZM141.656 39.0669V37.0669H139.656V39.0669H141.656ZM145.156 39.0669H147.156V37.0669H145.156V39.0669ZM145.156 44.3169V46.3169H147.156V44.3169H145.156ZM143.406 44.3169V42.3169H141.406V44.3169H143.406ZM143.406 46.0669V48.0669H145.406V46.0669H143.406ZM141.656 46.0669V44.0669H139.656V46.0669H141.656ZM141.656 51.3169V53.3169H143.656V51.3169H141.656ZM138.156 51.3169H140.156V46.0669H138.156H136.156V51.3169H138.156ZM138.156 46.0669V44.0669H136.406V46.0669V48.0669H138.156V46.0669ZM136.406 46.0669H138.406V44.3169H136.406H134.406V46.0669H136.406ZM136.406 44.3169V42.3169H134.656V44.3169V46.3169H136.406V44.3169ZM134.656 44.3169H136.656V39.0669H134.656H132.656V44.3169H134.656ZM134.656 39.0669V41.0669H138.156V39.0669V37.0669H134.656V39.0669ZM138.156 39.0669H136.156V44.3169H138.156H140.156V39.0669H138.156ZM138.156 44.3169V46.3169H141.656V44.3169V42.3169H138.156V44.3169ZM141.656 44.3169H143.656V39.0669H141.656H139.656V44.3169H141.656ZM141.656 39.0669V41.0669H145.156V39.0669V37.0669H141.656V39.0669ZM145.156 39.0669H143.156V44.3169H145.156H147.156V39.0669H145.156ZM145.156 44.3169V42.3169H143.406V44.3169V46.3169H145.156V44.3169ZM143.406 44.3169H141.406V46.0669H143.406H145.406V44.3169H143.406ZM143.406 46.0669V44.0669H141.656V46.0669V48.0669H143.406V46.0669ZM141.656 46.0669H139.656V51.3169H141.656H143.656V46.0669H141.656ZM141.656 51.3169V49.3169H138.156V51.3169V53.3169H141.656V51.3169ZM156.706 51.3169H154.706V53.3169H156.706V51.3169ZM156.706 39.0669V37.0669H154.706V39.0669H156.706ZM167.206 39.0669H169.206V37.0669H167.206V39.0669ZM167.206 40.8169H165.206V42.8169H167.206V40.8169ZM168.956 40.8169H170.956V38.8169H168.956V40.8169ZM168.956 44.3169V46.3169H170.956V44.3169H168.956ZM167.206 44.3169V42.3169H165.206V44.3169H167.206ZM167.206 46.0669H165.206V48.0669H167.206V46.0669ZM168.956 46.0669H170.956V44.0669H168.956V46.0669ZM168.956 49.5669V51.5669H170.956V49.5669H168.956ZM167.206 49.5669V47.5669H165.206V49.5669H167.206ZM167.206 51.3169V53.3169H169.206V51.3169H167.206ZM160.206 44.3169H158.206V46.3169H160.206V44.3169ZM165.456 44.3169V46.3169H167.456V44.3169H165.456ZM165.456 40.8169H167.456V38.8169H165.456V40.8169ZM160.206 40.8169V38.8169H158.206V40.8169H160.206ZM160.206 49.5669H158.206V51.5669H160.206V49.5669ZM165.456 49.5669V51.5669H167.456V49.5669H165.456ZM165.456 46.0669H167.456V44.0669H165.456V46.0669ZM160.206 46.0669V44.0669H158.206V46.0669H160.206ZM156.706 51.3169H158.706V39.0669H156.706H154.706V51.3169H156.706ZM156.706 39.0669V41.0669H167.206V39.0669V37.0669H156.706V39.0669ZM167.206 39.0669H165.206V40.8169H167.206H169.206V39.0669H167.206ZM167.206 40.8169V42.8169H168.956V40.8169V38.8169H167.206V40.8169ZM168.956 40.8169H166.956V44.3169H168.956H170.956V40.8169H168.956ZM168.956 44.3169V42.3169H167.206V44.3169V46.3169H168.956V44.3169ZM167.206 44.3169H165.206V46.0669H167.206H169.206V44.3169H167.206ZM167.206 46.0669V48.0669H168.956V46.0669V44.0669H167.206V46.0669ZM168.956 46.0669H166.956V49.5669H168.956H170.956V46.0669H168.956ZM168.956 49.5669V47.5669H167.206V49.5669V51.5669H168.956V49.5669ZM167.206 49.5669H165.206V51.3169H167.206H169.206V49.5669H167.206ZM167.206 51.3169V49.3169H156.706V51.3169V53.3169H167.206V51.3169ZM160.206 44.3169V46.3169H165.456V44.3169V42.3169H160.206V44.3169ZM165.456 44.3169H167.456V40.8169H165.456H163.456V44.3169H165.456ZM165.456 40.8169V38.8169H160.206V40.8169V42.8169H165.456V40.8169ZM160.206 40.8169H158.206V44.3169H160.206H162.206V40.8169H160.206ZM160.206 49.5669V51.5669H165.456V49.5669V47.5669H160.206V49.5669ZM165.456 49.5669H167.456V46.0669H165.456H163.456V49.5669H165.456ZM165.456 46.0669V44.0669H160.206V46.0669V48.0669H165.456V46.0669ZM160.206 46.0669H158.206V49.5669H160.206H162.206V46.0669H160.206ZM170.076 51.3169H168.076V53.3169H170.076V51.3169ZM170.076 49.5669V47.5669H168.076V49.5669H170.076ZM173.576 49.5669V51.5669H175.576V49.5669H173.576ZM173.576 40.8169H175.576V38.8169H173.576V40.8169ZM170.076 40.8169H168.076V42.8169H170.076V40.8169ZM170.076 39.0669V37.0669H168.076V39.0669H170.076ZM180.576 39.0669H182.576V37.0669H180.576V39.0669ZM180.576 40.8169V42.8169H182.576V40.8169H180.576ZM177.076 40.8169V38.8169H175.076V40.8169H177.076ZM177.076 49.5669H175.076V51.5669H177.076V49.5669ZM180.576 49.5669H182.576V47.5669H180.576V49.5669ZM180.576 51.3169V53.3169H182.576V51.3169H180.576ZM170.076 51.3169H172.076V49.5669H170.076H168.076V51.3169H170.076ZM170.076 49.5669V51.5669H173.576V49.5669V47.5669H170.076V49.5669ZM173.576 49.5669H175.576V40.8169H173.576H171.576V49.5669H173.576ZM173.576 40.8169V38.8169H170.076V40.8169V42.8169H173.576V40.8169ZM170.076 40.8169H172.076V39.0669H170.076H168.076V40.8169H170.076ZM170.076 39.0669V41.0669H180.576V39.0669V37.0669H170.076V39.0669ZM180.576 39.0669H178.576V40.8169H180.576H182.576V39.0669H180.576ZM180.576 40.8169V38.8169H177.076V40.8169V42.8169H180.576V40.8169ZM177.076 40.8169H175.076V49.5669H177.076H179.076V40.8169H177.076ZM177.076 49.5669V51.5669H180.576V49.5669V47.5669H177.076V49.5669ZM180.576 49.5669H178.576V51.3169H180.576H182.576V49.5669H180.576ZM180.576 51.3169V49.3169H170.076V51.3169V53.3169H180.576V51.3169ZM185.336 51.3169H183.336V53.3169H185.336V51.3169ZM185.336 40.8169H187.336V38.8169H185.336V40.8169ZM181.836 40.8169H179.836V42.8169H181.836V40.8169ZM181.836 39.0669V37.0669H179.836V39.0669H181.836ZM192.336 39.0669H194.336V37.0669H192.336V39.0669ZM192.336 40.8169V42.8169H194.336V40.8169H192.336ZM188.836 40.8169V38.8169H186.836V40.8169H188.836ZM188.836 51.3169V53.3169H190.836V51.3169H188.836ZM185.336 51.3169H187.336V40.8169H185.336H183.336V51.3169H185.336ZM185.336 40.8169V38.8169H181.836V40.8169V42.8169H185.336V40.8169ZM181.836 40.8169H183.836V39.0669H181.836H179.836V40.8169H181.836ZM181.836 39.0669V41.0669H192.336V39.0669V37.0669H181.836V39.0669ZM192.336 39.0669H190.336V40.8169H192.336H194.336V39.0669H192.336ZM192.336 40.8169V38.8169H188.836V40.8169V42.8169H192.336V40.8169ZM188.836 40.8169H186.836V51.3169H188.836H190.836V40.8169H188.836ZM188.836 51.3169V49.3169H185.336V51.3169V53.3169H188.836V51.3169ZM195.136 51.3169H193.136V53.3169H195.136V51.3169ZM195.136 49.5669H197.136V47.5669H195.136V49.5669ZM193.386 49.5669H191.386V51.5669H193.386V49.5669ZM193.386 39.0669V37.0669H191.386V39.0669H193.386ZM196.886 39.0669H198.886V37.0669H196.886V39.0669ZM196.886 46.0669H194.886V48.0669H196.886V46.0669ZM198.636 46.0669V48.0669H200.636V46.0669H198.636ZM198.636 39.0669V37.0669H196.636V39.0669H198.636ZM200.386 39.0669H202.386V37.0669H200.386V39.0669ZM200.386 46.0669H198.386V48.0669H200.386V46.0669ZM202.136 46.0669V48.0669H204.136V46.0669H202.136ZM202.136 39.0669V37.0669H200.136V39.0669H202.136ZM205.636 39.0669H207.636V37.0669H205.636V39.0669ZM205.636 49.5669V51.5669H207.636V49.5669H205.636ZM203.886 49.5669V47.5669H201.886V49.5669H203.886ZM203.886 51.3169V53.3169H205.886V51.3169H203.886ZM202.136 51.3169H200.136V53.3169H202.136V51.3169ZM202.136 49.5669H204.136V47.5669H202.136V49.5669ZM200.386 49.5669H198.386V51.5669H200.386V49.5669ZM200.386 47.8169H202.386V45.8169H200.386V47.8169ZM198.636 47.8169V45.8169H196.636V47.8169H198.636ZM198.636 49.5669V51.5669H200.636V49.5669H198.636ZM196.886 49.5669V47.5669H194.886V49.5669H196.886ZM196.886 51.3169V53.3169H198.886V51.3169H196.886ZM195.136 51.3169H197.136V49.5669H195.136H193.136V51.3169H195.136ZM195.136 49.5669V47.5669H193.386V49.5669V51.5669H195.136V49.5669ZM193.386 49.5669H195.386V39.0669H193.386H191.386V49.5669H193.386ZM193.386 39.0669V41.0669H196.886V39.0669V37.0669H193.386V39.0669ZM196.886 39.0669H194.886V46.0669H196.886H198.886V39.0669H196.886ZM196.886 46.0669V48.0669H198.636V46.0669V44.0669H196.886V46.0669ZM198.636 46.0669H200.636V39.0669H198.636H196.636V46.0669H198.636ZM198.636 39.0669V41.0669H200.386V39.0669V37.0669H198.636V39.0669ZM200.386 39.0669H198.386V46.0669H200.386H202.386V39.0669H200.386ZM200.386 46.0669V48.0669H202.136V46.0669V44.0669H200.386V46.0669ZM202.136 46.0669H204.136V39.0669H202.136H200.136V46.0669H202.136ZM202.136 39.0669V41.0669H205.636V39.0669V37.0669H202.136V39.0669ZM205.636 39.0669H203.636V49.5669H205.636H207.636V39.0669H205.636ZM205.636 49.5669V47.5669H203.886V49.5669V51.5669H205.636V49.5669ZM203.886 49.5669H201.886V51.3169H203.886H205.886V49.5669H203.886ZM203.886 51.3169V49.3169H202.136V51.3169V53.3169H203.886V51.3169ZM202.136 51.3169H204.136V49.5669H202.136H200.136V51.3169H202.136ZM202.136 49.5669V47.5669H200.386V49.5669V51.5669H202.136V49.5669ZM200.386 49.5669H202.386V47.8169H200.386H198.386V49.5669H200.386ZM200.386 47.8169V45.8169H198.636V47.8169V49.8169H200.386V47.8169ZM198.636 47.8169H196.636V49.5669H198.636H200.636V47.8169H198.636ZM198.636 49.5669V47.5669H196.886V49.5669V51.5669H198.636V49.5669ZM196.886 49.5669H194.886V51.3169H196.886H198.886V49.5669H196.886ZM196.886 51.3169V49.3169H195.136V51.3169V53.3169H196.886V51.3169ZM208.436 51.3169H206.436V53.3169H208.436V51.3169ZM208.436 49.5669H210.436V47.5669H208.436V49.5669ZM206.686 49.5669H204.686V51.5669H206.686V49.5669ZM206.686 40.8169V38.8169H204.686V40.8169H206.686ZM208.436 40.8169V42.8169H210.436V40.8169H208.436ZM208.436 39.0669V37.0669H206.436V39.0669H208.436ZM217.186 39.0669H219.186V37.0669H217.186V39.0669ZM217.186 40.8169H215.186V42.8169H217.186V40.8169ZM218.936 40.8169H220.936V38.8169H218.936V40.8169ZM218.936 49.5669V51.5669H220.936V49.5669H218.936ZM217.186 49.5669V47.5669H215.186V49.5669H217.186ZM217.186 51.3169V53.3169H219.186V51.3169H217.186ZM210.186 49.5669H208.186V51.5669H210.186V49.5669ZM215.436 49.5669V51.5669H217.436V49.5669H215.436ZM215.436 40.8169H217.436V38.8169H215.436V40.8169ZM210.186 40.8169V38.8169H208.186V40.8169H210.186ZM208.436 51.3169H210.436V49.5669H208.436H206.436V51.3169H208.436ZM208.436 49.5669V47.5669H206.686V49.5669V51.5669H208.436V49.5669ZM206.686 49.5669H208.686V40.8169H206.686H204.686V49.5669H206.686ZM206.686 40.8169V42.8169H208.436V40.8169V38.8169H206.686V40.8169ZM208.436 40.8169H210.436V39.0669H208.436H206.436V40.8169H208.436ZM208.436 39.0669V41.0669H217.186V39.0669V37.0669H208.436V39.0669ZM217.186 39.0669H215.186V40.8169H217.186H219.186V39.0669H217.186ZM217.186 40.8169V42.8169H218.936V40.8169V38.8169H217.186V40.8169ZM218.936 40.8169H216.936V49.5669H218.936H220.936V40.8169H218.936ZM218.936 49.5669V47.5669H217.186V49.5669V51.5669H218.936V49.5669ZM217.186 49.5669H215.186V51.3169H217.186H219.186V49.5669H217.186ZM217.186 51.3169V49.3169H208.436V51.3169V53.3169H217.186V51.3169ZM210.186 49.5669V51.5669H215.436V49.5669V47.5669H210.186V49.5669ZM215.436 49.5669H217.436V40.8169H215.436H213.436V49.5669H215.436ZM215.436 40.8169V38.8169H210.186V40.8169V42.8169H215.436V40.8169ZM210.186 40.8169H208.186V49.5669H210.186H212.186V40.8169H210.186ZM219.986 51.3169H217.986V53.3169H219.986V51.3169ZM219.986 39.0669V37.0669H217.986V39.0669H219.986ZM230.486 39.0669H232.486V37.0669H230.486V39.0669ZM230.486 40.8169H228.486V42.8169H230.486V40.8169ZM232.236 40.8169H234.236V38.8169H232.236V40.8169ZM232.236 46.0669V48.0669H234.236V46.0669H232.236ZM228.736 46.0669V44.0669H226.736V46.0669H228.736ZM228.736 47.8169H226.736V49.8169H228.736V47.8169ZM230.486 47.8169H232.486V45.8169H230.486V47.8169ZM230.486 49.5669H228.486V51.5669H230.486V49.5669ZM232.236 49.5669H234.236V47.5669H232.236V49.5669ZM232.236 51.3169V53.3169H234.236V51.3169H232.236ZM226.986 51.3169H224.986V53.3169H226.986V51.3169ZM226.986 49.5669H228.986V47.5669H226.986V49.5669ZM225.236 49.5669H223.236V51.5669H225.236V49.5669ZM225.236 47.8169H227.236V45.8169H225.236V47.8169ZM223.486 47.8169V45.8169H221.486V47.8169H223.486ZM223.486 51.3169V53.3169H225.486V51.3169H223.486ZM223.486 46.0669H221.486V48.0669H223.486V46.0669ZM226.986 46.0669V48.0669H228.986V46.0669H226.986ZM226.986 44.3169V42.3169H224.986V44.3169H226.986ZM228.736 44.3169V46.3169H230.736V44.3169H228.736ZM228.736 40.8169H230.736V38.8169H228.736V40.8169ZM223.486 40.8169V38.8169H221.486V40.8169H223.486ZM219.986 51.3169H221.986V39.0669H219.986H217.986V51.3169H219.986ZM219.986 39.0669V41.0669H230.486V39.0669V37.0669H219.986V39.0669ZM230.486 39.0669H228.486V40.8169H230.486H232.486V39.0669H230.486ZM230.486 40.8169V42.8169H232.236V40.8169V38.8169H230.486V40.8169ZM232.236 40.8169H230.236V46.0669H232.236H234.236V40.8169H232.236ZM232.236 46.0669V44.0669H228.736V46.0669V48.0669H232.236V46.0669ZM228.736 46.0669H226.736V47.8169H228.736H230.736V46.0669H228.736ZM228.736 47.8169V49.8169H230.486V47.8169V45.8169H228.736V47.8169ZM230.486 47.8169H228.486V49.5669H230.486H232.486V47.8169H230.486ZM230.486 49.5669V51.5669H232.236V49.5669V47.5669H230.486V49.5669ZM232.236 49.5669H230.236V51.3169H232.236H234.236V49.5669H232.236ZM232.236 51.3169V49.3169H226.986V51.3169V53.3169H232.236V51.3169ZM226.986 51.3169H228.986V49.5669H226.986H224.986V51.3169H226.986ZM226.986 49.5669V47.5669H225.236V49.5669V51.5669H226.986V49.5669ZM225.236 49.5669H227.236V47.8169H225.236H223.236V49.5669H225.236ZM225.236 47.8169V45.8169H223.486V47.8169V49.8169H225.236V47.8169ZM223.486 47.8169H221.486V51.3169H223.486H225.486V47.8169H223.486ZM223.486 51.3169V49.3169H219.986V51.3169V53.3169H223.486V51.3169ZM223.486 46.0669V48.0669H226.986V46.0669V44.0669H223.486V46.0669ZM226.986 46.0669H228.986V44.3169H226.986H224.986V46.0669H226.986ZM226.986 44.3169V46.3169H228.736V44.3169V42.3169H226.986V44.3169ZM228.736 44.3169H230.736V40.8169H228.736H226.736V44.3169H228.736ZM228.736 40.8169V38.8169H223.486V40.8169V42.8169H228.736V40.8169ZM223.486 40.8169H221.486V46.0669H223.486H225.486V40.8169H223.486ZM233.286 51.3169H231.286V53.3169H233.286V51.3169ZM233.286 47.8169V45.8169H231.286V47.8169H233.286ZM235.036 47.8169V49.8169H237.036V47.8169H235.036ZM235.036 46.0669V44.0669H233.036V46.0669H235.036ZM236.786 46.0669V48.0669H238.786V46.0669H236.786ZM236.786 44.3169H238.786V42.3169H236.786V44.3169ZM235.036 44.3169H233.036V46.3169H235.036V44.3169ZM235.036 42.5669H237.036V40.5669H235.036V42.5669ZM233.286 42.5669H231.286V44.5669H233.286V42.5669ZM233.286 39.0669V37.0669H231.286V39.0669H233.286ZM236.786 39.0669H238.786V37.0669H236.786V39.0669ZM236.786 42.5669H234.786V44.5669H236.786V42.5669ZM238.536 42.5669H240.536V40.5669H238.536V42.5669ZM238.536 44.3169H236.536V46.3169H238.536V44.3169ZM240.286 44.3169V46.3169H242.286V44.3169H240.286ZM240.286 42.5669V40.5669H238.286V42.5669H240.286ZM242.036 42.5669V44.5669H244.036V42.5669H242.036ZM242.036 39.0669V37.0669H240.036V39.0669H242.036ZM245.536 39.0669H247.536V37.0669H245.536V39.0669ZM245.536 42.5669V44.5669H247.536V42.5669H245.536ZM243.786 42.5669V40.5669H241.786V42.5669H243.786ZM243.786 44.3169V46.3169H245.786V44.3169H243.786ZM242.036 44.3169V42.3169H240.036V44.3169H242.036ZM242.036 46.0669H240.036V48.0669H242.036V46.0669ZM243.786 46.0669H245.786V44.0669H243.786V46.0669ZM243.786 47.8169H241.786V49.8169H243.786V47.8169ZM245.536 47.8169H247.536V45.8169H245.536V47.8169ZM245.536 51.3169V53.3169H247.536V51.3169H245.536ZM242.036 51.3169H240.036V53.3169H242.036V51.3169ZM242.036 47.8169H244.036V45.8169H242.036V47.8169ZM240.286 47.8169H238.286V49.8169H240.286V47.8169ZM240.286 46.0669H242.286V44.0669H240.286V46.0669ZM238.536 46.0669V44.0669H236.536V46.0669H238.536ZM238.536 47.8169V49.8169H240.536V47.8169H238.536ZM236.786 47.8169V45.8169H234.786V47.8169H236.786ZM236.786 51.3169V53.3169H238.786V51.3169H236.786ZM233.286 51.3169H235.286V47.8169H233.286H231.286V51.3169H233.286ZM233.286 47.8169V49.8169H235.036V47.8169V45.8169H233.286V47.8169ZM235.036 47.8169H237.036V46.0669H235.036H233.036V47.8169H235.036ZM235.036 46.0669V48.0669H236.786V46.0669V44.0669H235.036V46.0669ZM236.786 46.0669H238.786V44.3169H236.786H234.786V46.0669H236.786ZM236.786 44.3169V42.3169H235.036V44.3169V46.3169H236.786V44.3169ZM235.036 44.3169H237.036V42.5669H235.036H233.036V44.3169H235.036ZM235.036 42.5669V40.5669H233.286V42.5669V44.5669H235.036V42.5669ZM233.286 42.5669H235.286V39.0669H233.286H231.286V42.5669H233.286ZM233.286 39.0669V41.0669H236.786V39.0669V37.0669H233.286V39.0669ZM236.786 39.0669H234.786V42.5669H236.786H238.786V39.0669H236.786ZM236.786 42.5669V44.5669H238.536V42.5669V40.5669H236.786V42.5669ZM238.536 42.5669H236.536V44.3169H238.536H240.536V42.5669H238.536ZM238.536 44.3169V46.3169H240.286V44.3169V42.3169H238.536V44.3169ZM240.286 44.3169H242.286V42.5669H240.286H238.286V44.3169H240.286ZM240.286 42.5669V44.5669H242.036V42.5669V40.5669H240.286V42.5669ZM242.036 42.5669H244.036V39.0669H242.036H240.036V42.5669H242.036ZM242.036 39.0669V41.0669H245.536V39.0669V37.0669H242.036V39.0669ZM245.536 39.0669H243.536V42.5669H245.536H247.536V39.0669H245.536ZM245.536 42.5669V40.5669H243.786V42.5669V44.5669H245.536V42.5669ZM243.786 42.5669H241.786V44.3169H243.786H245.786V42.5669H243.786ZM243.786 44.3169V42.3169H242.036V44.3169V46.3169H243.786V44.3169ZM242.036 44.3169H240.036V46.0669H242.036H244.036V44.3169H242.036ZM242.036 46.0669V48.0669H243.786V46.0669V44.0669H242.036V46.0669ZM243.786 46.0669H241.786V47.8169H243.786H245.786V46.0669H243.786ZM243.786 47.8169V49.8169H245.536V47.8169V45.8169H243.786V47.8169ZM245.536 47.8169H243.536V51.3169H245.536H247.536V47.8169H245.536ZM245.536 51.3169V49.3169H242.036V51.3169V53.3169H245.536V51.3169ZM242.036 51.3169H244.036V47.8169H242.036H240.036V51.3169H242.036ZM242.036 47.8169V45.8169H240.286V47.8169V49.8169H242.036V47.8169ZM240.286 47.8169H242.286V46.0669H240.286H238.286V47.8169H240.286ZM240.286 46.0669V44.0669H238.536V46.0669V48.0669H240.286V46.0669ZM238.536 46.0669H236.536V47.8169H238.536H240.536V46.0669H238.536ZM238.536 47.8169V45.8169H236.786V47.8169V49.8169H238.536V47.8169ZM236.786 47.8169H234.786V51.3169H236.786H238.786V47.8169H236.786ZM236.786 51.3169V49.3169H233.286V51.3169V53.3169H236.786V51.3169Z" fill="black" mask="url(#path-124-outside-2_297_5)"/>
</svg>
